<svg version="1.1" id="Layer_1" xmlns="http://www.w3.org/2000/svg" xmlns:xlink="http://www.w3.org/1999/xlink" x="0px" y="0px"
	 width="100%" viewBox="0 0 512 99" enable-background="new 0 0 512 99" xml:space="preserve">
<path fill="#FDFEFD" opacity="1.000000" stroke="none" 
	d="
M468.000000,0.999999 
	C482.994598,1.000000 497.989227,1.000000 512.987915,0.999999 
	C512.991943,33.982758 512.991943,66.965515 512.991943,99.974136 
	C342.411896,99.974136 171.823776,99.974136 1.117830,99.974136 
	C1.117830,67.090782 1.117830,34.181004 1.117830,1.000000 
	C154.687454,1.000000 308.375061,1.000000 462.587677,1.346065 
	C463.848694,3.286641 464.584717,4.881152 465.320740,6.475663 
	C466.063477,5.884607 466.806213,5.293551 467.548950,4.702495 
	C467.699280,3.468329 467.849640,2.234164 468.000000,0.999999 
M445.000000,87.000000 
	C445.000000,87.000000 445.024475,86.974358 445.233185,87.433243 
	C445.514832,87.603752 445.796478,87.774269 446.006592,87.999084 
	C446.006592,87.999084 446.050018,87.920555 446.297363,88.432251 
	C446.633759,88.585701 446.970154,88.739151 447.717743,88.980461 
	C447.717743,88.980461 448.039032,89.251724 448.240997,89.588562 
	C448.417023,89.793594 448.635010,89.933205 448.987274,90.001373 
	C448.987274,90.001373 448.983826,90.093887 449.124420,90.777245 
	C450.890137,92.597076 452.284637,92.841797 452.996735,89.962669 
	C452.996735,89.962669 452.891541,89.934608 453.327301,89.844864 
	C453.613251,89.724365 453.824951,89.525032 454.409088,89.000900 
	C454.578613,88.988937 454.748169,88.976967 455.528076,88.962341 
	C456.019470,88.656380 456.510864,88.350426 457.001282,88.005547 
	C457.001282,88.005547 457.042755,88.015434 457.848785,88.013924 
	C461.827118,86.524498 466.276093,85.711647 469.655212,83.360893 
	C473.244293,80.864044 475.818542,76.908478 479.151855,73.064903 
	C480.650787,71.663139 482.149719,70.261375 484.443237,68.933212 
	C487.581238,66.517654 491.475952,64.616463 493.590729,61.505386 
	C494.996521,59.437267 493.859222,55.640469 493.838135,52.268257 
	C493.838135,52.268257 494.066345,52.003044 494.710388,51.904934 
	C494.789886,50.927456 494.869385,49.949982 494.923004,48.290825 
	C495.021881,47.849304 495.120789,47.407784 495.737640,46.652573 
	C495.730743,45.733177 495.723816,44.813778 495.696808,43.107521 
	C495.816864,42.068604 495.936951,41.029686 496.640381,39.680817 
	C498.021271,38.237320 499.036865,36.844536 495.927765,35.347004 
	C495.952728,34.897964 495.977692,34.448921 496.550140,33.521797 
	C495.967041,29.822153 497.783295,25.283617 492.916382,23.007423 
	C492.916382,23.007423 492.932281,23.085964 492.834778,22.654087 
	C492.708405,22.371952 492.504608,22.166737 491.951080,21.726288 
	C491.951080,21.726288 491.894318,21.315971 491.787842,20.757259 
	C491.512909,20.511286 491.237976,20.265312 490.454071,19.709064 
	C489.942596,18.859940 489.431091,18.010815 488.972595,16.304502 
	C489.577850,11.912477 488.555145,9.312344 483.339752,10.947856 
	C482.304749,11.272410 481.089844,11.023129 479.429749,11.003921 
	C479.273621,10.921747 479.117523,10.839575 478.678772,10.396147 
	C478.427185,10.186474 478.139069,10.103655 477.915344,10.174062 
	C477.915344,10.174062 477.828430,10.231741 477.840210,9.452372 
	C475.257935,6.061608 472.212097,6.142749 468.034485,8.336078 
	C466.023285,8.213613 464.012115,8.091148 461.851410,7.244339 
	C458.642029,4.850464 456.099945,5.714813 453.582672,9.053939 
	C453.582672,9.053939 453.097107,9.040897 452.227539,9.003207 
	C448.669128,9.212109 444.467468,7.928890 442.996643,13.005233 
	C442.996643,13.005233 442.976257,12.993319 442.162964,12.987589 
	C435.518433,13.403007 429.410156,19.462175 429.000000,26.000076 
	C429.000000,26.000076 429.025238,26.019056 428.558472,26.254850 
	C428.412476,26.562132 428.266479,26.869413 428.160248,27.092741 
	C428.160248,27.092741 428.213501,27.168877 427.411560,27.133574 
	C423.552826,28.428205 425.445038,31.654478 425.056793,34.603901 
	C425.056793,34.603901 424.834930,35.036533 424.364868,35.499008 
	C424.294006,36.148865 424.223145,36.798721 424.236664,37.753365 
	C424.236664,37.753365 424.039551,38.000671 423.332794,38.114044 
	C423.292908,39.441914 423.252991,40.769783 423.287048,42.754402 
	C423.170898,43.176350 423.054718,43.598297 422.401825,44.539230 
	C422.561035,46.682735 422.720245,48.826241 423.082428,51.692871 
	C423.104065,52.440262 423.125671,53.187649 422.547913,54.377426 
	C422.252106,56.560009 421.112671,59.090065 421.838318,60.851933 
	C423.293640,64.385262 425.536224,67.680252 427.911285,70.715683 
	C429.272430,72.455307 431.532104,73.491867 433.754120,75.065750 
	C433.964783,75.282547 434.068665,75.542076 434.225494,76.352562 
	C434.507416,76.555069 434.789307,76.757568 434.996765,76.986137 
	C434.996765,76.986137 435.057007,76.934898 435.026031,77.710754 
	C436.169647,78.752754 437.313232,79.794762 438.790833,80.937241 
	C438.790833,80.937241 438.986633,81.225838 438.992676,81.966263 
	C438.887115,85.519409 441.323242,85.900719 444.002441,85.997437 
	C444.002441,85.997437 444.019928,85.996300 444.222504,86.442802 
	C444.423035,86.721390 444.690643,86.898880 445.000000,87.000000 
M189.168213,71.852875 
	C188.965149,73.439568 188.762085,75.026260 188.508499,77.007744 
	C194.574692,77.007744 200.306641,77.074699 206.032837,76.923698 
	C206.755264,76.904655 207.447495,75.740150 208.672119,74.525787 
	C212.718613,52.893524 216.765106,31.261263 220.837097,9.492657 
	C213.938324,9.492657 207.641388,9.492657 201.061554,9.492657 
	C199.384964,18.044254 197.732986,26.470322 195.874847,35.947945 
	C189.378860,27.569933 183.548981,19.939110 177.561356,12.434148 
	C176.511551,11.118304 174.864700,9.567314 173.381577,9.441113 
	C168.804672,9.051654 164.173569,9.298994 159.477676,9.298994 
	C155.172424,32.156227 150.982880,54.399220 146.784546,76.688782 
	C153.911774,76.688782 160.333374,76.688782 166.656860,76.688782 
	C169.088196,63.918056 171.453583,51.493786 174.014038,38.044895 
	C177.407043,42.442181 179.798218,46.064877 182.710114,49.204666 
	C188.570877,55.524155 192.970001,62.139355 189.168213,71.852875 
M398.797546,77.050674 
	C399.862183,77.084541 400.926788,77.118401 402.103058,77.853004 
	C404.207581,80.639534 406.066742,81.839005 407.723907,76.857658 
	C408.861237,72.226151 409.998596,67.594643 411.556244,62.653011 
	C411.660675,62.324562 411.765106,61.996113 411.829102,60.832260 
	C414.231049,47.887535 416.633026,34.942810 419.652069,21.913469 
	C419.725739,20.882330 419.799438,19.851191 419.864990,18.207644 
	C419.923798,17.804049 419.982605,17.400454 420.613922,16.922361 
	C420.936371,16.626522 421.258820,16.330685 421.581268,16.034861 
	C421.127655,15.691126 420.674042,15.347390 420.204651,14.223351 
	C420.443329,12.695502 420.682007,11.167653 421.008270,9.079119 
	C415.944580,9.079119 411.543671,8.898122 407.170502,9.167579 
	C405.403839,9.276433 403.697845,10.369828 401.528687,11.248520 
	C401.259583,11.466652 401.094696,11.746255 400.928650,12.763130 
	C394.960938,20.254948 389.035187,27.780943 382.985992,35.206409 
	C381.923950,36.510105 380.344543,37.392338 379.004028,38.469196 
	C377.942383,36.923340 376.789459,35.429993 375.857025,33.809776 
	C375.381378,32.983234 375.301422,31.928976 375.477722,30.645819 
	C375.031128,30.097034 374.584534,29.548250 373.974243,28.271431 
	C372.998077,25.999172 371.821259,23.790380 371.079163,21.444092 
	C367.039856,8.673052 367.078369,8.745476 353.660156,9.014572 
	C350.629944,9.075340 349.302368,9.951090 348.742920,13.086074 
	C346.304596,26.750135 343.564819,40.360126 340.988373,53.999928 
	C339.586090,61.423630 338.291595,68.867691 336.882599,76.667259 
	C343.822968,76.667259 350.195068,76.667259 356.534668,76.667259 
	C358.064240,69.547173 359.520264,62.769505 361.662689,55.892849 
	C363.070068,55.270710 364.477417,54.648567 366.068817,54.740055 
	C367.076660,57.481983 367.910400,60.307747 369.171661,62.927670 
	C369.735138,64.098091 371.151489,65.658714 372.190948,65.666412 
	C377.996918,65.709473 382.740936,63.665165 385.425201,57.986038 
	C386.157227,56.437328 387.694458,55.269218 389.515991,54.037865 
	C390.346466,54.691952 391.176910,55.346039 392.013306,56.768391 
	C391.399475,59.184872 390.785645,61.601353 389.475250,64.083817 
	C387.429199,65.368080 387.636292,66.332237 389.947418,67.663132 
	C389.711029,68.475014 389.474640,69.286896 388.501434,70.114288 
	C387.395966,71.720406 386.290497,73.326523 385.185059,74.932640 
	C386.462585,75.618858 387.740082,76.305069 389.680786,77.006432 
	C390.120148,77.054260 390.559509,77.102097 391.183563,77.868042 
	C393.657166,79.495811 396.029633,80.180702 398.797546,77.050674 
M305.759216,53.996189 
	C306.783417,54.012852 307.807648,54.029510 308.858002,54.822491 
	C307.470337,61.974586 303.286133,68.698135 305.555878,76.585342 
	C311.911743,76.585342 318.268005,76.585342 324.664093,76.585342 
	C328.889923,54.069660 333.039368,31.961058 337.318115,9.163507 
	C328.689758,9.567929 319.871857,6.002834 314.737640,15.803547 
	C314.451202,16.350359 313.768097,16.689358 312.510559,17.131462 
	C312.030304,18.135199 311.550079,19.138935 310.819794,20.714809 
	C309.920197,21.828171 309.020569,22.941532 307.390472,24.029020 
	C304.859619,24.363764 303.671814,25.461237 304.959198,28.722492 
	C302.706635,31.516422 300.454071,34.310352 297.477295,36.984138 
	C295.973480,36.324623 294.469666,35.665108 292.858704,34.622047 
	C292.858704,34.622047 292.831512,34.224754 293.138092,33.588009 
	C294.477112,31.051546 293.182434,30.224360 290.382660,29.542187 
	C289.320496,26.748583 288.199158,23.975824 287.206299,21.157812 
	C282.675995,8.299645 282.688965,8.295158 269.208618,9.067762 
	C269.042664,9.077274 268.809021,9.001366 268.719604,9.085308 
	C267.470062,10.258266 265.411316,11.284419 265.131622,12.666467 
	C261.714447,29.552464 258.544006,46.488583 255.346451,63.418671 
	C254.532837,67.726456 253.848495,72.058655 253.042603,76.740761 
	C259.935669,76.740761 266.179108,76.740761 272.693878,76.740761 
	C274.564697,67.826530 276.399200,59.085369 278.233673,50.344204 
	C278.762939,50.433537 279.292175,50.522865 279.821442,50.612194 
	C281.547821,54.346855 283.187103,58.125027 285.025146,61.803883 
	C286.844330,65.444969 294.491852,66.653580 297.169678,63.653004 
	C299.924042,60.566669 302.392517,57.225201 305.759216,53.996189 
M42.004890,73.669830 
	C43.055569,74.783035 44.062225,76.806030 45.164188,76.859352 
	C51.524361,77.167084 57.907047,77.009460 65.227173,77.009460 
	C61.493557,70.132660 58.303185,64.256432 55.769913,59.590492 
	C60.722713,54.003262 66.242271,49.706860 69.199074,44.066906 
	C77.005730,29.176094 70.996284,11.990512 53.622906,10.170797 
	C42.292133,8.983994 30.736177,9.947043 18.742773,9.947043 
	C14.471007,31.882740 10.127769,54.185455 5.754875,76.640442 
	C12.634468,76.640442 19.177258,76.640442 25.612848,76.640442 
	C26.617933,71.768143 27.541815,67.289482 28.363274,63.307339 
	C34.962437,61.166515 38.560352,63.351761 40.085835,69.295883 
	C40.411057,70.563141 41.162113,71.721107 42.004890,73.669830 
M83.578751,28.014961 
	C82.282219,35.038269 80.862015,42.041428 79.713493,49.088856 
	C76.838943,66.727295 83.560089,76.114571 101.245735,77.729111 
	C120.870560,79.520660 133.848083,72.677292 139.082062,52.051517 
	C141.121994,44.012665 142.429489,35.785572 143.997803,27.630217 
	C145.142181,21.679333 146.167404,15.705530 147.325256,9.302171 
	C141.090454,9.302171 135.600693,9.118477 130.142563,9.452133 
	C129.006729,9.521567 127.288284,11.360859 127.024048,12.631149 
	C124.521317,24.662636 122.533539,36.806469 119.800026,48.781582 
	C118.963127,52.447937 116.853600,56.217602 114.300400,58.997047 
	C111.223404,62.346687 106.212433,62.629177 102.859314,60.016365 
	C100.635780,58.283745 99.807617,54.165138 99.336533,50.969891 
	C98.969345,48.479385 100.098534,45.762714 100.591263,43.151932 
	C102.697525,31.991610 104.814362,20.833282 106.961761,9.492435 
	C100.045525,9.492435 93.749390,9.492435 87.109848,9.492435 
	C85.987373,15.471881 84.888161,21.327393 83.578751,28.014961 
M250.930359,23.347515 
	C251.694702,18.844311 252.459061,14.341105 253.354614,9.064854 
	C248.464325,9.064854 244.358688,9.062150 240.253036,9.065454 
	C233.167526,9.071157 233.318726,9.101142 232.042099,15.893422 
	C228.954849,32.319130 225.685287,48.710499 222.553177,65.127907 
	C221.835236,68.891121 221.375122,72.703522 220.773849,76.640610 
	C228.031097,76.640610 234.258148,76.640610 240.346130,76.640610 
	C243.885849,58.893204 247.346298,41.543240 250.930359,23.347515 
M454.462067,94.287254 
	C455.038086,94.398872 455.614075,94.510490 456.190063,94.622116 
	C456.195282,94.213097 456.200500,93.804070 456.205719,93.395058 
	C455.626953,93.492554 455.048187,93.590050 454.462067,94.287254 
M448.564636,96.294731 
	C448.293671,96.010834 448.022705,95.726944 447.751740,95.443054 
	C447.634216,95.555351 447.516693,95.667648 447.399139,95.779945 
	C447.670410,96.063828 447.941681,96.347710 448.564636,96.294731 
M434.294891,11.435565 
	C434.010925,11.706493 433.726929,11.977422 433.442963,12.248351 
	C433.555298,12.365882 433.759125,12.591786 433.766785,12.585318 
	C434.066284,12.332444 434.347931,12.058401 434.294891,11.435565 
z"/>
<path fill="#F5FCFB" opacity="1.000000" stroke="none" 
	d="
M467.583313,0.999999 
	C467.849640,2.234164 467.699280,3.468329 467.548950,4.702495 
	C466.806213,5.293551 466.063477,5.884607 465.320740,6.475663 
	C464.584717,4.881152 463.848694,3.286641 463.056335,1.346065 
	C464.388885,1.000000 465.777802,1.000000 467.583313,0.999999 
z"/>
<path fill="#CCBEA3" opacity="1.000000" stroke="none" 
	d="
M298.201508,37.104279 
	C300.454071,34.310352 302.706635,31.516422 305.314667,28.228506 
	C306.487091,26.507975 307.304016,25.281429 308.120972,24.054888 
	C309.020569,22.941532 309.920197,21.828171 311.221924,20.262012 
	C312.172577,18.914501 312.721100,18.019791 313.269623,17.125080 
	C313.768097,16.689358 314.451202,16.350359 314.737640,15.803547 
	C319.871857,6.002834 328.689758,9.567929 337.318115,9.163507 
	C333.039368,31.961058 328.889923,54.069660 324.664093,76.585342 
	C318.268005,76.585342 311.911743,76.585342 305.555878,76.585342 
	C303.286133,68.698135 307.470337,61.974586 308.916138,54.079483 
	C309.138916,52.023743 309.303528,50.711014 309.468109,49.398281 
	C309.111572,49.250145 308.755005,49.102005 308.398468,48.953865 
	C307.260986,50.634369 306.123535,52.314877 304.986084,53.995377 
	C302.392517,57.225201 299.924042,60.566669 297.169678,63.653004 
	C294.491852,66.653580 286.844330,65.444969 285.025146,61.803883 
	C283.187103,58.125027 281.547821,54.346855 279.821442,50.612194 
	C279.292175,50.522865 278.762939,50.433537 278.233673,50.344204 
	C276.399200,59.085369 274.564697,67.826530 272.693878,76.740761 
	C266.179108,76.740761 259.935669,76.740761 253.042603,76.740761 
	C253.848495,72.058655 254.532837,67.726456 255.346451,63.418671 
	C258.544006,46.488583 261.714447,29.552464 265.131622,12.666467 
	C265.411316,11.284419 267.470062,10.258266 268.719604,9.085308 
	C268.809021,9.001366 269.042664,9.077274 269.208618,9.067762 
	C282.688965,8.295158 282.675995,8.299645 287.206299,21.157812 
	C288.199158,23.975824 289.320496,26.748583 290.651978,30.145878 
	C291.558044,31.907963 292.194794,33.066360 292.831512,34.224754 
	C292.831512,34.224754 292.858704,34.622047 292.913239,35.175835 
	C293.644562,37.401867 294.321320,39.074112 295.386017,41.704849 
	C296.739258,39.493626 297.470367,38.298950 298.201508,37.104279 
z"/>
<path fill="#CCBEA2" opacity="1.000000" stroke="none" 
	d="
M390.171814,64.017838 
	C390.785645,61.601353 391.399475,59.184872 392.272949,56.094563 
	C392.678497,53.273315 392.824432,51.125896 393.105469,48.936966 
	C393.166748,48.939751 393.092896,48.984051 392.706696,49.139282 
	C391.216919,50.808952 390.039551,52.367691 388.862152,53.926430 
	C387.694458,55.269218 386.157227,56.437328 385.425201,57.986038 
	C382.740936,63.665165 377.996918,65.709473 372.190948,65.666412 
	C371.151489,65.658714 369.735138,64.098091 369.171661,62.927670 
	C367.910400,60.307747 367.076660,57.481983 365.965454,54.016426 
	C365.030914,51.287582 364.199738,49.282368 363.368530,47.277153 
	C362.979248,47.347038 362.589935,47.416924 362.200653,47.486813 
	C361.792511,50.321815 361.384369,53.156822 360.976257,55.991829 
	C359.520264,62.769505 358.064240,69.547173 356.534668,76.667259 
	C350.195068,76.667259 343.822968,76.667259 336.882599,76.667259 
	C338.291595,68.867691 339.586090,61.423630 340.988373,53.999928 
	C343.564819,40.360126 346.304596,26.750135 348.742920,13.086074 
	C349.302368,9.951090 350.629944,9.075340 353.660156,9.014572 
	C367.078369,8.745476 367.039856,8.673052 371.079163,21.444092 
	C371.821259,23.790380 372.998077,25.999172 374.039948,28.929918 
	C374.417938,30.051491 374.730255,30.514576 375.042603,30.977654 
	C375.301422,31.928976 375.381378,32.983234 375.857025,33.809776 
	C376.789459,35.429993 377.942383,36.923340 379.004028,38.469204 
	C380.344543,37.392338 381.923950,36.510105 382.985992,35.206409 
	C389.035187,27.780943 394.960938,20.254948 401.196472,12.302943 
	C401.743896,11.635126 401.910553,11.359266 401.964264,11.015179 
	C403.697845,10.369828 405.403839,9.276433 407.170502,9.167579 
	C411.543671,8.898122 415.944580,9.079119 421.008270,9.079119 
	C420.682007,11.167653 420.443329,12.695502 420.125122,14.938700 
	C420.044189,16.101652 420.042816,16.549255 420.041443,16.996857 
	C419.982605,17.400454 419.923798,17.804049 419.636078,18.765331 
	C419.283112,20.214706 419.159058,21.106394 419.034973,21.998085 
	C416.633026,34.942810 414.231049,47.887535 411.649536,61.419075 
	C411.358673,62.324974 411.247314,62.644058 411.135956,62.963135 
	C409.998596,67.594643 408.861237,72.226151 406.948029,76.938004 
	C404.778564,77.062988 403.385010,77.107628 401.991425,77.152267 
	C400.926788,77.118401 399.862183,77.084541 397.964355,77.041077 
	C395.087097,77.070953 393.042969,77.110443 390.998871,77.149925 
	C390.559509,77.102097 390.120148,77.054260 389.313599,76.566956 
	C389.043701,74.117905 389.140961,72.108345 389.238281,70.098785 
	C389.474640,69.286896 389.711029,68.475014 389.992798,66.965439 
	C390.082764,65.517776 390.127289,64.767807 390.171814,64.017838 
z"/>
<path fill="#074961" opacity="1.000000" stroke="none" 
	d="
M189.712494,71.276978 
	C192.970001,62.139355 188.570877,55.524155 182.710114,49.204666 
	C179.798218,46.064877 177.407043,42.442181 174.014038,38.044895 
	C171.453583,51.493786 169.088196,63.918056 166.656860,76.688782 
	C160.333374,76.688782 153.911774,76.688782 146.784546,76.688782 
	C150.982880,54.399220 155.172424,32.156227 159.477676,9.298994 
	C164.173569,9.298994 168.804672,9.051654 173.381577,9.441113 
	C174.864700,9.567314 176.511551,11.118304 177.561356,12.434148 
	C183.548981,19.939110 189.378860,27.569933 195.874847,35.947945 
	C197.732986,26.470322 199.384964,18.044254 201.061554,9.492657 
	C207.641388,9.492657 213.938324,9.492657 220.837097,9.492657 
	C216.765106,31.261263 212.718613,52.893524 207.987518,74.828941 
	C203.206833,75.421547 199.101425,75.618271 195.017426,76.028191 
	C191.392212,76.392052 189.788437,74.750137 189.712494,71.276978 
z"/>
<path fill="#074961" opacity="1.000000" stroke="none" 
	d="
M41.860939,73.299629 
	C41.162113,71.721107 40.411057,70.563141 40.085835,69.295883 
	C38.560352,63.351761 34.962437,61.166515 28.363274,63.307339 
	C27.541815,67.289482 26.617933,71.768143 25.612848,76.640442 
	C19.177258,76.640442 12.634468,76.640442 5.754875,76.640442 
	C10.127769,54.185455 14.471007,31.882740 18.742773,9.947043 
	C30.736177,9.947043 42.292133,8.983994 53.622906,10.170797 
	C70.996284,11.990512 77.005730,29.176094 69.199074,44.066906 
	C66.242271,49.706860 60.722713,54.003262 55.769913,59.590492 
	C58.303185,64.256432 61.493557,70.132660 65.227173,77.009460 
	C57.907047,77.009460 51.524361,77.167084 45.164188,76.859352 
	C44.062225,76.806030 43.055569,74.783035 41.860939,73.299629 
M52.298573,34.963303 
	C53.536854,26.939913 48.495514,24.514099 35.298218,26.710487 
	C34.092087,33.274910 32.880833,39.867237 31.663017,46.495255 
	C43.867523,47.790474 49.025890,44.974308 52.298573,34.963303 
z"/>
<path fill="#094A61" opacity="1.000000" stroke="none" 
	d="
M83.683853,27.598932 
	C84.888161,21.327393 85.987373,15.471881 87.109848,9.492435 
	C93.749390,9.492435 100.045525,9.492435 106.961761,9.492435 
	C104.814362,20.833282 102.697525,31.991610 100.591263,43.151932 
	C100.098534,45.762714 98.969345,48.479385 99.336533,50.969891 
	C99.807617,54.165138 100.635780,58.283745 102.859314,60.016365 
	C106.212433,62.629177 111.223404,62.346687 114.300400,58.997047 
	C116.853600,56.217602 118.963127,52.447937 119.800026,48.781582 
	C122.533539,36.806469 124.521317,24.662636 127.024048,12.631149 
	C127.288284,11.360859 129.006729,9.521567 130.142563,9.452133 
	C135.600693,9.118477 141.090454,9.302171 147.325256,9.302171 
	C146.167404,15.705530 145.142181,21.679333 143.997803,27.630217 
	C142.429489,35.785572 141.121994,44.012665 139.082062,52.051517 
	C133.848083,72.677292 120.870560,79.520660 101.245735,77.729111 
	C83.560089,76.114571 76.838943,66.727295 79.713493,49.088856 
	C80.862015,42.041428 82.282219,35.038269 83.683853,27.598932 
z"/>
<path fill="#CCBEA3" opacity="1.000000" stroke="none" 
	d="
M250.868561,23.770393 
	C247.346298,41.543240 243.885849,58.893204 240.346130,76.640610 
	C234.258148,76.640610 228.031097,76.640610 220.773849,76.640610 
	C221.375122,72.703522 221.835236,68.891121 222.553177,65.127907 
	C225.685287,48.710499 228.954849,32.319130 232.042099,15.893422 
	C233.318726,9.101142 233.167526,9.071157 240.253036,9.065454 
	C244.358688,9.062150 248.464325,9.064854 253.354614,9.064854 
	C252.459061,14.341105 251.694702,18.844311 250.868561,23.770393 
z"/>
<path fill="#35AEAB" opacity="1.000000" stroke="none" 
	d="
M478.961456,10.757401 
	C479.117523,10.839575 479.273621,10.921747 479.734436,11.223213 
	C480.039093,11.442507 480.116486,11.847765 479.676392,11.903927 
	C477.276794,11.811247 475.210510,12.014238 473.375000,11.456954 
	C460.647644,7.592806 449.169556,10.618023 439.183319,18.570232 
	C434.174744,22.558659 430.447662,28.156372 426.144012,32.675995 
	C426.835846,30.606770 427.524658,28.887821 428.213501,27.168875 
	C428.213501,27.168877 428.160248,27.092741 428.392883,27.041283 
	C428.758789,26.666237 428.892029,26.342649 429.025238,26.019058 
	C429.025238,26.019056 429.000000,26.000076 429.294006,25.834385 
	C434.050781,21.443569 438.513519,17.218445 442.976257,12.993320 
	C442.976257,12.993319 442.996643,13.005233 443.359436,12.961012 
	C446.847198,11.624825 449.972137,10.332861 453.097107,9.040897 
	C453.097107,9.040897 453.582672,9.053939 454.199829,8.986927 
	C457.211609,8.602838 459.606262,8.285759 462.000916,7.968682 
	C464.012115,8.091148 466.023285,8.213613 468.791199,8.487820 
	C472.308075,9.170287 475.068268,9.701014 477.828430,10.231741 
	C477.828430,10.231741 477.915344,10.174062 477.972229,10.379815 
	C478.029144,10.585568 478.474609,10.783703 478.474609,10.783703 
	C478.474609,10.783703 478.961456,10.757401 478.961456,10.757401 
z"/>
<path fill="#35AEAB" opacity="1.000000" stroke="none" 
	d="
M438.986633,81.225838 
	C438.986633,81.225838 438.790833,80.937241 438.484467,80.583771 
	C437.137726,79.131836 436.097351,78.033371 435.057007,76.934906 
	C435.057007,76.934898 434.996765,76.986137 434.959412,76.715057 
	C434.636658,76.244102 434.351196,76.044228 434.065765,75.844345 
	C434.068665,75.542076 433.964783,75.282547 433.453552,74.622055 
	C429.817749,67.430588 426.482544,60.682812 423.147308,53.935036 
	C423.125671,53.187649 423.104065,52.440262 423.042938,50.937122 
	C423.050323,49.123631 423.097198,48.065887 423.408783,47.259293 
	C424.035492,48.252865 424.633881,48.967854 424.723724,49.741875 
	C425.929260,60.127663 430.365234,68.765266 438.116119,75.847740 
	C439.308960,76.937729 439.294189,79.349281 439.625000,81.168053 
	C439.412140,81.186462 438.986633,81.225838 438.986633,81.225838 
z"/>
<path fill="#35AEAB" opacity="1.000000" stroke="none" 
	d="
M495.219666,46.966263 
	C495.120789,47.407784 495.021881,47.849304 494.694519,48.854294 
	C494.332825,50.279518 494.199585,51.141281 494.066345,52.003044 
	C494.066345,52.003044 493.838135,52.268257 493.597534,52.681564 
	C492.603577,54.466629 491.850220,55.838390 491.058044,56.787651 
	C491.435608,54.432281 491.832855,52.495045 492.271729,50.567287 
	C494.123535,42.433811 495.724152,34.415489 491.044922,26.492805 
	C489.428558,23.755991 488.969696,20.335535 488.215302,17.194294 
	C488.448517,17.161224 488.919586,17.161695 488.919586,17.161694 
	C489.431091,18.010815 489.942596,18.859940 490.766357,20.139969 
	C491.350555,20.819237 491.622437,21.067600 491.894318,21.315968 
	C491.894318,21.315971 491.951080,21.726288 492.091125,22.121550 
	C492.329468,22.873247 492.563171,23.062963 492.932281,23.085964 
	C492.932281,23.085964 492.916382,23.007423 492.944946,23.421282 
	C493.983246,27.223387 494.992950,30.611631 496.002686,33.999878 
	C495.977692,34.448921 495.952728,34.897964 495.961426,36.067619 
	C496.015717,37.855743 496.036377,38.923256 496.057037,39.990768 
	C495.936951,41.029686 495.816864,42.068604 495.521179,43.762703 
	C495.303619,45.267345 495.261658,46.116806 495.219666,46.966263 
z"/>
<path fill="#F5FCFB" opacity="1.000000" stroke="none" 
	d="
M491.096863,57.210155 
	C491.850220,55.838390 492.603577,54.466629 493.608582,52.856155 
	C493.859222,55.640469 494.996521,59.437267 493.590729,61.505386 
	C491.475952,64.616463 487.581238,66.517654 484.162079,68.594254 
	C484.409790,67.327141 484.938629,66.398987 485.462708,65.448471 
	C485.457947,65.426102 485.478638,65.387321 485.718018,65.308319 
	C486.096069,64.932167 486.234711,64.635017 486.371155,64.206055 
	C486.369019,64.074242 486.415100,64.333870 486.685059,64.196686 
	C487.607727,63.026608 488.260437,61.993713 489.028442,60.860592 
	C489.143738,60.760365 489.167236,60.455772 489.446686,60.248703 
	C490.018097,59.419460 490.310059,58.797291 490.751404,58.055496 
	C491.055237,57.718048 491.120605,57.476143 491.096863,57.210155 
z"/>
<path fill="#F5FCFB" opacity="1.000000" stroke="none" 
	d="
M422.847595,54.156227 
	C426.482544,60.682812 429.817749,67.430588 433.270111,74.511658 
	C431.532104,73.491867 429.272430,72.455307 427.911285,70.715683 
	C425.536224,67.680252 423.293640,64.385262 421.838318,60.851933 
	C421.112671,59.090065 422.252106,56.560009 422.847595,54.156227 
z"/>
<path fill="#F5FCFB" opacity="1.000000" stroke="none" 
	d="
M478.835938,73.589920 
	C475.818542,76.908478 473.244293,80.864044 469.655212,83.360893 
	C466.276093,85.711647 461.827118,86.524498 457.469849,87.805969 
	C457.090912,87.598015 457.152374,87.182465 457.132874,87.169518 
	C457.113403,87.156570 457.126099,87.179001 457.479248,87.147041 
	C460.236420,85.752998 462.640411,84.390915 465.025024,83.012413 
	C465.005615,82.996002 465.022217,83.043823 465.337830,83.015244 
	C466.473572,82.356262 467.293701,81.725868 468.060822,81.062347 
	C468.007812,81.029221 468.086029,81.126740 468.427429,81.075539 
	C470.976318,79.199959 473.183807,77.375580 475.344543,75.500282 
	C475.297791,75.449364 475.433533,75.475494 475.719910,75.430283 
	C476.387238,74.966240 476.768219,74.547394 477.147156,74.125053 
	C477.145142,74.121559 477.160400,74.154213 477.451447,74.098976 
	C478.106995,73.892471 478.471466,73.741203 478.835938,73.589920 
z"/>
<path fill="#F5FCFB" opacity="1.000000" stroke="none" 
	d="
M442.569611,12.990456 
	C438.513519,17.218445 434.050781,21.443569 429.306091,25.844711 
	C429.410156,19.462175 435.518433,13.403007 442.569611,12.990456 
z"/>
<path fill="#F5FCFB" opacity="1.000000" stroke="none" 
	d="
M488.946106,16.733099 
	C488.919586,17.161695 488.448517,17.161224 488.200928,17.107716 
	C487.953339,17.054207 487.781281,17.085737 487.675171,16.797365 
	C486.600800,15.846024 485.632538,15.183053 484.593872,14.472149 
	C484.523407,14.424215 484.377289,14.336443 484.233215,14.093015 
	C483.410461,13.537189 482.731781,13.224792 482.027283,12.950300 
	C482.001465,12.988205 482.077728,12.937275 481.916077,12.681787 
	C481.196777,12.234822 480.639191,12.043345 480.087036,11.876436 
	C480.092468,11.901004 480.116486,11.847765 480.116486,11.847765 
	C480.116486,11.847765 480.039093,11.442507 479.998474,11.240485 
	C481.089844,11.023129 482.304749,11.272410 483.339752,10.947856 
	C488.555145,9.312344 489.577850,11.912477 488.946106,16.733099 
z"/>
<path fill="#35AEAB" opacity="1.000000" stroke="none" 
	d="
M457.152374,87.182465 
	C457.152374,87.182465 457.090912,87.598015 457.066833,87.806725 
	C457.042755,88.015434 457.001282,88.005547 456.702515,88.035927 
	C455.908417,88.365868 455.413086,88.665428 454.917725,88.964996 
	C454.748169,88.976967 454.578613,88.988937 453.946594,89.122742 
	C453.134125,89.343666 452.936615,89.573669 452.891541,89.934608 
	C452.891541,89.934608 452.996735,89.962669 452.566498,89.959106 
	C451.085449,90.001656 450.034637,90.047768 448.983826,90.093887 
	C448.983826,90.093887 448.987274,90.001373 448.893433,89.788895 
	C448.627502,89.277565 448.373962,89.169334 448.039032,89.251724 
	C448.039032,89.251724 447.717743,88.980461 447.378174,88.689133 
	C446.709045,88.238724 446.379547,88.079643 446.050018,87.920555 
	C446.050018,87.920555 446.006592,87.999084 445.968811,87.721207 
	C445.628876,87.287003 445.326660,87.130684 445.024475,86.974365 
	C445.024475,86.974358 445.000000,87.000000 444.940460,86.741882 
	C444.593933,86.321281 444.306915,86.158791 444.019928,85.996300 
	C444.019928,85.996300 444.002441,85.997437 443.910706,85.731865 
	C443.483643,85.047012 443.148315,84.627739 443.192108,84.145706 
	C447.932007,85.844719 452.070129,88.582001 457.152374,87.182465 
z"/>
<path fill="#35AEAB" opacity="1.000000" stroke="none" 
	d="
M478.993896,73.327423 
	C478.471466,73.741203 478.106995,73.892471 477.404480,73.716385 
	C479.378113,70.231094 479.916199,65.191521 485.467499,65.470833 
	C484.938629,66.398987 484.409790,67.327141 483.764801,68.557449 
	C482.149719,70.261375 480.650787,71.663139 478.993896,73.327423 
z"/>
<path fill="#164453" opacity="1.000000" stroke="none" 
	d="
M189.440353,71.564926 
	C189.788437,74.750137 191.392212,76.392052 195.017426,76.028191 
	C199.101425,75.618271 203.206833,75.421547 207.728317,75.119225 
	C207.447495,75.740150 206.755264,76.904655 206.032837,76.923698 
	C200.306641,77.074699 194.574692,77.007744 188.508499,77.007744 
	C188.762085,75.026260 188.965149,73.439568 189.440353,71.564926 
z"/>
<path fill="#FAF6E8" opacity="1.000000" stroke="none" 
	d="
M361.319458,55.942337 
	C361.384369,53.156822 361.792511,50.321815 362.200653,47.486813 
	C362.589935,47.416924 362.979248,47.347038 363.368530,47.277153 
	C364.199738,49.282368 365.030914,51.287582 365.873474,53.659615 
	C364.477417,54.648567 363.070068,55.270710 361.319458,55.942337 
z"/>
<path fill="#FDFBF3" opacity="1.000000" stroke="none" 
	d="
M388.869843,70.106537 
	C389.140961,72.108345 389.043701,74.117905 388.981995,76.559380 
	C387.740082,76.305069 386.462585,75.618858 385.185059,74.932632 
	C386.290497,73.326523 387.395966,71.720406 388.869843,70.106537 
z"/>
<path fill="#35AEAB" opacity="1.000000" stroke="none" 
	d="
M424.834930,35.036533 
	C424.834930,35.036533 425.056793,34.603901 425.266113,34.293503 
	C425.475433,33.983109 425.884125,33.843914 425.930176,34.294891 
	C425.426849,38.237717 427.662628,42.423405 423.303253,44.751228 
	C423.102020,44.344452 423.020294,44.182350 422.938568,44.020245 
	C423.054718,43.598297 423.170898,43.176350 423.460022,42.141258 
	C423.768524,40.352295 423.904022,39.176483 424.039551,38.000671 
	C424.039551,38.000671 424.236664,37.753365 424.417786,37.355621 
	C424.677582,36.317432 424.756256,35.676983 424.834930,35.036533 
z"/>
<path fill="#F5FCFB" opacity="1.000000" stroke="none" 
	d="
M496.276428,33.760838 
	C494.992950,30.611631 493.983246,27.223387 492.937622,23.460999 
	C497.783295,25.283617 495.967041,29.822153 496.276428,33.760838 
z"/>
<path fill="#F5FCFB" opacity="1.000000" stroke="none" 
	d="
M477.834320,9.842056 
	C475.068268,9.701014 472.308075,9.170287 469.221313,8.448776 
	C472.212097,6.142749 475.257935,6.061608 477.834320,9.842056 
z"/>
<path fill="#FBF7EF" opacity="1.000000" stroke="none" 
	d="
M297.839417,37.044209 
	C297.470367,38.298950 296.739258,39.493626 295.386017,41.704849 
	C294.321320,39.074112 293.644562,37.401867 292.966797,35.367611 
	C294.469666,35.665108 295.973480,36.324623 297.839417,37.044209 
z"/>
<path fill="#F5FCFB" opacity="1.000000" stroke="none" 
	d="
M452.662323,9.022053 
	C449.972137,10.332861 446.847198,11.624825 443.359863,12.949516 
	C444.467468,7.928890 448.669128,9.212109 452.662323,9.022053 
z"/>
<path fill="#FAF7EE" opacity="1.000000" stroke="none" 
	d="
M392.970337,48.978477 
	C392.824432,51.125896 392.678497,53.273315 392.269989,55.710430 
	C391.176910,55.346039 390.346466,54.691952 389.189087,53.982147 
	C390.039551,52.367691 391.216919,50.808952 392.696167,49.125244 
	C392.997986,49.000267 392.970337,48.978477 392.970337,48.978477 
z"/>
<path fill="#F5FCFB" opacity="1.000000" stroke="none" 
	d="
M461.926147,7.606510 
	C459.606262,8.285759 457.211609,8.602838 454.419708,8.883831 
	C456.099945,5.714813 458.642029,4.850464 461.926147,7.606510 
z"/>
<path fill="#F8F3E7" opacity="1.000000" stroke="none" 
	d="
M305.372650,53.995785 
	C306.123535,52.314877 307.260986,50.634369 308.398468,48.953865 
	C308.755005,49.102005 309.111572,49.250145 309.468109,49.398281 
	C309.303528,50.711014 309.138916,52.023743 308.903076,53.691322 
	C307.807648,54.029510 306.783417,54.012852 305.372650,53.995785 
z"/>
<path fill="#FDFBF3" opacity="1.000000" stroke="none" 
	d="
M391.091217,77.508987 
	C393.042969,77.110443 395.087097,77.070953 397.566589,77.083969 
	C396.029633,80.180702 393.657166,79.495811 391.091217,77.508987 
z"/>
<path fill="#FDFBF3" opacity="1.000000" stroke="none" 
	d="
M402.047241,77.502640 
	C403.385010,77.107628 404.778564,77.062988 406.589600,77.056610 
	C406.066742,81.839005 404.207581,80.639534 402.047241,77.502640 
z"/>
<path fill="#F5FCFB" opacity="1.000000" stroke="none" 
	d="
M442.812958,84.208458 
	C443.148315,84.627739 443.483643,85.047012 443.910217,85.723106 
	C441.323242,85.900719 438.887115,85.519409 438.989655,81.596054 
	C438.986633,81.225838 439.412140,81.186462 439.632111,81.151718 
	C439.852081,81.116974 439.855591,81.124924 439.956116,81.422882 
	C440.982300,82.541267 441.907898,83.361702 442.841553,84.190109 
	C442.849609,84.198090 442.812958,84.208458 442.812958,84.208458 
z"/>
<path fill="#F5FCFB" opacity="1.000000" stroke="none" 
	d="
M425.884125,33.843914 
	C425.884125,33.843914 425.475433,33.983109 425.270569,34.050442 
	C425.445038,31.654478 423.552826,28.428205 427.812531,27.151222 
	C427.524658,28.887821 426.835846,30.606770 426.029327,32.864479 
	C425.911621,33.403240 425.884125,33.843914 425.884125,33.843914 
z"/>
<path fill="#FBF8F1" opacity="1.000000" stroke="none" 
	d="
M307.755707,24.041950 
	C307.304016,25.281429 306.487091,26.507975 305.388916,27.891609 
	C303.671814,25.461237 304.859619,24.363764 307.755707,24.041950 
z"/>
<path fill="#FBF7EF" opacity="1.000000" stroke="none" 
	d="
M292.984802,33.906380 
	C292.194794,33.066360 291.558044,31.907963 290.887543,30.408894 
	C293.182434,30.224360 294.477112,31.051546 292.984802,33.906380 
z"/>
<path fill="#F5FCFB" opacity="1.000000" stroke="none" 
	d="
M435.041504,77.322830 
	C436.097351,78.033371 437.137726,79.131836 438.317474,80.533539 
	C437.313232,79.794762 436.169647,78.752754 435.041504,77.322830 
z"/>
<path fill="#F5FCFB" opacity="1.000000" stroke="none" 
	d="
M423.686157,38.057358 
	C423.904022,39.176483 423.768524,40.352295 423.423035,41.812881 
	C423.252991,40.769783 423.292908,39.441914 423.686157,38.057358 
z"/>
<path fill="#F5FCFB" opacity="1.000000" stroke="none" 
	d="
M449.054138,90.435562 
	C450.034637,90.047768 451.085449,90.001656 452.530060,89.918663 
	C452.284637,92.841797 450.890137,92.597076 449.054138,90.435562 
z"/>
<path fill="#F5FCFB" opacity="1.000000" stroke="none" 
	d="
M422.670197,44.279739 
	C423.020294,44.182350 423.102020,44.344452 423.176208,45.072487 
	C423.160522,46.094994 423.152283,46.551571 423.144043,47.008144 
	C423.097198,48.065887 423.050323,49.123631 422.941467,50.575558 
	C422.720245,48.826241 422.561035,46.682735 422.670197,44.279739 
z"/>
<path fill="#F5FCFB" opacity="1.000000" stroke="none" 
	d="
M496.348694,39.835793 
	C496.036377,38.923256 496.015717,37.855743 496.061981,36.392326 
	C499.036865,36.844536 498.021271,38.237320 496.348694,39.835793 
z"/>
<path fill="#F5FCFB" opacity="1.000000" stroke="none" 
	d="
M494.388367,51.953987 
	C494.199585,51.141281 494.332825,50.279518 494.707489,49.195133 
	C494.869385,49.949982 494.789886,50.927456 494.388367,51.953987 
z"/>
<path fill="#F5FCFB" opacity="1.000000" stroke="none" 
	d="
M454.465759,93.987396 
	C455.048187,93.590050 455.626953,93.492554 456.205688,93.395050 
	C456.200500,93.804070 456.195282,94.213097 456.190063,94.622116 
	C455.614075,94.510490 455.038086,94.398872 454.465759,93.987396 
z"/>
<path fill="#FDFBF3" opacity="1.000000" stroke="none" 
	d="
M389.823547,64.050827 
	C390.127289,64.767807 390.082764,65.517776 389.964294,66.636665 
	C387.636292,66.332237 387.429199,65.368080 389.823547,64.050827 
z"/>
<path fill="#F5FCFB" opacity="1.000000" stroke="none" 
	d="
M495.478668,46.809418 
	C495.261658,46.116806 495.303619,45.267345 495.531250,44.156136 
	C495.723816,44.813778 495.730743,45.733177 495.478668,46.809418 
z"/>
<path fill="#F5FCFB" opacity="1.000000" stroke="none" 
	d="
M419.343506,21.955776 
	C419.159058,21.106394 419.283112,20.214706 419.640137,19.071535 
	C419.799438,19.851191 419.725739,20.882330 419.343506,21.955776 
z"/>
<path fill="#FBF8F1" opacity="1.000000" stroke="none" 
	d="
M312.890076,17.128271 
	C312.721100,18.019791 312.172577,18.914501 311.346954,19.975943 
	C311.550079,19.138935 312.030304,18.135199 312.890076,17.128271 
z"/>
<path fill="#F5FCFB" opacity="1.000000" stroke="none" 
	d="
M448.388794,96.463165 
	C447.941681,96.347710 447.670410,96.063828 447.399139,95.779945 
	C447.516693,95.667648 447.634216,95.555351 447.751740,95.443054 
	C448.022705,95.726944 448.293671,96.010834 448.388794,96.463165 
z"/>
<path fill="#F5FCFB" opacity="1.000000" stroke="none" 
	d="
M375.260132,30.811741 
	C374.730255,30.514576 374.417938,30.051491 374.121826,29.293936 
	C374.584534,29.548250 375.031128,30.097034 375.260132,30.811741 
z"/>
<path fill="#F5FCFB" opacity="1.000000" stroke="none" 
	d="
M434.463379,11.611349 
	C434.347931,12.058401 434.066284,12.332444 433.766785,12.585318 
	C433.759125,12.591786 433.555298,12.365882 433.442963,12.248350 
	C433.726929,11.977422 434.010925,11.706493 434.463379,11.611349 
z"/>
<path fill="#F5FCFB" opacity="1.000000" stroke="none" 
	d="
M420.327667,16.959610 
	C420.042816,16.549255 420.044189,16.101652 420.132996,15.328852 
	C420.674042,15.347390 421.127655,15.691126 421.581268,16.034853 
	C421.258820,16.330685 420.936371,16.626522 420.327667,16.959610 
z"/>
<path fill="#F5FCFB" opacity="1.000000" stroke="none" 
	d="
M455.222900,88.963669 
	C455.413086,88.665428 455.908417,88.365868 456.703003,88.055389 
	C456.510864,88.350426 456.019470,88.656380 455.222900,88.963669 
z"/>
<path fill="#F5FCFB" opacity="1.000000" stroke="none" 
	d="
M424.599915,35.267769 
	C424.756256,35.676983 424.677582,36.317432 424.375610,37.203228 
	C424.223145,36.798721 424.294006,36.148865 424.599915,35.267769 
z"/>
<path fill="#F5FCFB" opacity="1.000000" stroke="none" 
	d="
M445.128845,87.203804 
	C445.326660,87.130684 445.628876,87.287003 446.004578,87.694054 
	C445.796478,87.774269 445.514832,87.603752 445.128845,87.203804 
z"/>
<path fill="#F5FCFB" opacity="1.000000" stroke="none" 
	d="
M478.820129,10.576775 
	C478.961456,10.757401 478.474609,10.783703 478.474609,10.783703 
	C478.474609,10.783703 478.029144,10.585568 477.921783,10.366629 
	C478.139069,10.103655 478.427185,10.186474 478.820129,10.576775 
z"/>
<path fill="#F5FCFB" opacity="1.000000" stroke="none" 
	d="
M453.109436,89.889740 
	C452.936615,89.573669 453.134125,89.343666 453.723236,89.245728 
	C453.824951,89.525032 453.613251,89.724365 453.109436,89.889740 
z"/>
<path fill="#F5FCFB" opacity="1.000000" stroke="none" 
	d="
M448.140015,89.420143 
	C448.373962,89.169334 448.627502,89.277565 448.847260,89.791916 
	C448.635010,89.933205 448.417023,89.793594 448.140015,89.420143 
z"/>
<path fill="#F5FCFB" opacity="1.000000" stroke="none" 
	d="
M446.173706,88.176407 
	C446.379547,88.079643 446.709045,88.238724 447.172546,88.645203 
	C446.970154,88.739151 446.633759,88.585701 446.173706,88.176407 
z"/>
<path fill="#F5FCFB" opacity="1.000000" stroke="none" 
	d="
M401.746460,11.131847 
	C401.910553,11.359266 401.743896,11.635126 401.249115,11.965044 
	C401.094696,11.746255 401.259583,11.466652 401.746460,11.131847 
z"/>
<path fill="#F5FCFB" opacity="1.000000" stroke="none" 
	d="
M444.121216,86.219551 
	C444.306915,86.158791 444.593933,86.321281 444.953125,86.729515 
	C444.690643,86.898880 444.423035,86.721390 444.121216,86.219551 
z"/>
<path fill="#F5FCFB" opacity="1.000000" stroke="none" 
	d="
M428.791870,26.136955 
	C428.892029,26.342649 428.758789,26.666237 428.373016,27.083260 
	C428.266479,26.869413 428.412476,26.562132 428.791870,26.136955 
z"/>
<path fill="#F5FCFB" opacity="1.000000" stroke="none" 
	d="
M492.883545,22.870026 
	C492.563171,23.062963 492.329468,22.873247 492.227295,22.277626 
	C492.504608,22.166737 492.708405,22.371952 492.883545,22.870026 
z"/>
<path fill="#F5FCFB" opacity="1.000000" stroke="none" 
	d="
M411.346100,62.808075 
	C411.247314,62.644058 411.358673,62.324974 411.669769,61.836777 
	C411.765106,61.996113 411.660675,62.324562 411.346100,62.808075 
z"/>
<path fill="#F5FCFB" opacity="1.000000" stroke="none" 
	d="
M491.841064,21.036612 
	C491.622437,21.067600 491.350555,20.819237 491.020844,20.295107 
	C491.237976,20.265312 491.512909,20.511286 491.841064,21.036612 
z"/>
<path fill="#F5FCFB" opacity="1.000000" stroke="none" 
	d="
M434.145630,76.098450 
	C434.351196,76.044228 434.636658,76.244102 434.996643,76.702026 
	C434.789307,76.757568 434.507416,76.555069 434.145630,76.098450 
z"/>
<path fill="#FAF7EE" opacity="1.000000" stroke="none" 
	d="
M393.008545,49.014309 
	C393.092896,48.984051 393.166748,48.939751 393.105469,48.936966 
	C392.970337,48.978477 392.997986,49.000267 393.008545,49.014309 
z"/>
<path fill="#F2F8FA" opacity="1.000000" stroke="none" 
	d="
M52.221516,35.333744 
	C49.025890,44.974308 43.867523,47.790474 31.663017,46.495255 
	C32.880833,39.867237 34.092087,33.274910 35.298218,26.710487 
	C48.495514,24.514099 53.536854,26.939913 52.221516,35.333744 
z"/>
<path fill="#14B2B1" opacity="1.000000" stroke="none" 
	d="
M423.408783,47.259293 
	C423.152283,46.551571 423.160522,46.094994 423.295776,45.317158 
	C427.662628,42.423405 425.426849,38.237717 425.930176,34.294891 
	C425.884125,33.843914 425.911621,33.403240 426.026306,33.214752 
	C430.447662,28.156372 434.174744,22.558659 439.183319,18.570232 
	C449.169556,10.618023 460.647644,7.592806 473.375000,11.456954 
	C475.210510,12.014238 477.276794,11.811247 479.676392,11.903927 
	C480.116486,11.847765 480.092468,11.901004 480.218018,12.162535 
	C480.921631,12.595137 481.499695,12.766208 482.077728,12.937277 
	C482.077728,12.937275 482.001465,12.988205 482.058167,13.310925 
	C482.869019,13.867912 483.623138,14.102180 484.377289,14.336445 
	C484.377289,14.336443 484.523407,14.424215 484.420959,14.830915 
	C485.472778,15.853657 486.627045,16.469696 487.781281,17.085737 
	C487.781281,17.085737 487.953339,17.054207 487.967712,17.140785 
	C488.969696,20.335535 489.428558,23.755991 491.044922,26.492805 
	C495.724152,34.415489 494.123535,42.433811 492.271729,50.567287 
	C491.832855,52.495045 491.435608,54.432281 491.058044,56.787655 
	C491.120605,57.476143 491.055237,57.718048 490.373688,58.150528 
	C489.620178,59.062050 489.393707,59.758911 489.167236,60.455772 
	C489.167236,60.455772 489.143738,60.760365 488.645874,60.877785 
	C487.570374,62.108089 486.992737,63.220978 486.415100,64.333862 
	C486.415100,64.333870 486.369019,64.074242 486.072144,64.215424 
	C485.676361,64.700180 485.577484,65.043747 485.478638,65.387321 
	C485.478638,65.387321 485.457947,65.426102 485.462708,65.448471 
	C479.916199,65.191521 479.378113,70.231094 477.113464,73.771622 
	C477.160400,74.154213 477.145142,74.121559 476.810181,74.109528 
	C476.127991,74.556831 475.780762,75.016159 475.433533,75.475494 
	C475.433533,75.475494 475.297791,75.449364 474.985168,75.347046 
	C472.477020,77.205399 470.281525,79.166069 468.086029,81.126740 
	C468.086029,81.126740 468.007812,81.029221 467.694489,81.023247 
	C466.594849,81.692795 465.808533,82.368309 465.022217,83.043823 
	C465.022217,83.043823 465.005615,82.996002 464.618622,82.989471 
	C461.863129,84.381630 459.494598,85.780319 457.126099,87.179001 
	C457.126099,87.179001 457.113403,87.156570 457.132874,87.169518 
	C452.070129,88.582001 447.932007,85.844719 443.192108,84.145706 
	C442.812958,84.208458 442.849609,84.198090 442.890503,83.799652 
	C441.906158,82.642441 440.880859,81.883682 439.855591,81.124924 
	C439.855591,81.124924 439.852081,81.116974 439.844971,81.133308 
	C439.294189,79.349281 439.308960,76.937729 438.116119,75.847740 
	C430.365234,68.765266 425.929260,60.127663 424.723724,49.741875 
	C424.633881,48.967854 424.035492,48.252865 423.408783,47.259293 
M453.920135,27.170410 
	C446.719971,31.638626 444.169586,38.750725 443.331024,46.588741 
	C442.395325,55.334805 448.125885,61.326263 456.914734,61.284672 
	C466.269409,61.240406 473.316986,53.876083 475.148163,42.249584 
	C476.046326,36.547016 475.649689,31.030052 470.632324,27.365643 
	C465.614532,23.700956 460.048035,24.099325 453.920135,27.170410 
z"/>
<path fill="#35AEAB" opacity="1.000000" stroke="none" 
	d="
M486.685059,64.196686 
	C486.992737,63.220978 487.570374,62.108089 488.530579,60.978012 
	C488.260437,61.993713 487.607727,63.026608 486.685059,64.196686 
z"/>
<path fill="#35AEAB" opacity="1.000000" stroke="none" 
	d="
M489.446686,60.248703 
	C489.393707,59.758911 489.620178,59.062050 490.224365,58.270149 
	C490.310059,58.797291 490.018097,59.419460 489.446686,60.248703 
z"/>
<path fill="#35AEAB" opacity="1.000000" stroke="none" 
	d="
M485.718018,65.308319 
	C485.577484,65.043747 485.676361,64.700180 486.074280,64.347244 
	C486.234711,64.635017 486.096069,64.932167 485.718018,65.308319 
z"/>
<path fill="#35AEAB" opacity="1.000000" stroke="none" 
	d="
M468.427429,81.075539 
	C470.281525,79.166069 472.477020,77.205399 475.031891,75.397964 
	C473.183807,77.375580 470.976318,79.199959 468.427429,81.075539 
z"/>
<path fill="#35AEAB" opacity="1.000000" stroke="none" 
	d="
M457.479248,87.147049 
	C459.494598,85.780319 461.863129,84.381630 464.638000,83.005882 
	C462.640411,84.390915 460.236420,85.752998 457.479248,87.147049 
z"/>
<path fill="#35AEAB" opacity="1.000000" stroke="none" 
	d="
M465.337830,83.015244 
	C465.808533,82.368309 466.594849,81.692795 467.747498,81.056374 
	C467.293701,81.725868 466.473572,82.356262 465.337830,83.015244 
z"/>
<path fill="#35AEAB" opacity="1.000000" stroke="none" 
	d="
M475.719910,75.430283 
	C475.780762,75.016159 476.127991,74.556831 476.812195,74.113022 
	C476.768219,74.547394 476.387238,74.966240 475.719910,75.430283 
z"/>
<path fill="#35AEAB" opacity="1.000000" stroke="none" 
	d="
M487.675171,16.797365 
	C486.627045,16.469696 485.472778,15.853657 484.491425,14.878849 
	C485.632538,15.183053 486.600800,15.846024 487.675171,16.797365 
z"/>
<path fill="#35AEAB" opacity="1.000000" stroke="none" 
	d="
M484.233215,14.093018 
	C483.623138,14.102180 482.869019,13.867912 482.083984,13.273021 
	C482.731781,13.224792 483.410461,13.537189 484.233215,14.093018 
z"/>
<path fill="#35AEAB" opacity="1.000000" stroke="none" 
	d="
M481.916077,12.681789 
	C481.499695,12.766208 480.921631,12.595137 480.212585,12.137967 
	C480.639191,12.043345 481.196777,12.234822 481.916077,12.681789 
z"/>
<path fill="#35AEAB" opacity="1.000000" stroke="none" 
	d="
M439.956116,81.422874 
	C440.880859,81.883682 441.906158,82.642441 442.882446,83.791672 
	C441.907898,83.361702 440.982300,82.541267 439.956116,81.422874 
z"/>
<path fill="#F5FDFD" opacity="1.000000" stroke="none" 
	d="
M454.261169,26.995373 
	C460.048035,24.099325 465.614532,23.700956 470.632324,27.365643 
	C475.649689,31.030052 476.046326,36.547016 475.148163,42.249584 
	C473.316986,53.876083 466.269409,61.240406 456.914734,61.284672 
	C448.125885,61.326263 442.395325,55.334805 443.331024,46.588741 
	C444.169586,38.750725 446.719971,31.638626 454.261169,26.995373 
z"/>
</svg>