<svg version="1.1" id="Layer_1" xmlns="http://www.w3.org/2000/svg" xmlns:xlink="http://www.w3.org/1999/xlink" x="0px" y="0px"
	 width="100%" viewBox="0 0 238 263" enable-background="new 0 0 238 263" xml:space="preserve">
<path fill="#FEFFFF" opacity="1.000000" stroke="none" 
	d="
M239.000000,96.000000 
	C239.000000,152.333328 239.000000,208.166672 239.000000,264.000000 
	C159.666672,264.000000 80.333336,264.000000 1.000000,264.000000 
	C1.000000,176.333328 1.000000,88.666664 1.000000,1.000000 
	C80.333336,1.000000 159.666672,1.000000 239.000000,1.000000 
	C239.000000,32.500000 239.000000,64.000000 239.000000,96.000000 
M192.518997,168.797668 
	C192.663956,168.506409 192.808914,168.215164 192.991730,167.996811 
	C192.991730,167.996811 192.925797,167.947800 193.643555,167.931137 
	C197.448944,166.137283 199.670532,163.408081 199.003967,158.985992 
	C199.003967,158.985992 198.938232,158.969879 199.460388,158.650146 
	C199.568054,158.268127 199.675720,157.886124 199.811157,157.194748 
	C199.811157,157.194748 200.053604,157.000610 200.760620,156.930328 
	C204.789352,152.322144 208.241714,147.455353 207.976166,140.440674 
	C207.976166,140.440674 208.194000,140.025925 208.867249,139.876572 
	C216.017044,127.759132 216.478134,114.176285 217.272949,100.666550 
	C217.692413,100.873528 218.111893,101.080505 218.531357,101.287491 
	C219.211426,100.098351 219.891510,98.909210 220.571579,97.720070 
	C216.924728,96.304283 218.405640,93.080299 217.927551,90.485794 
	C217.156738,86.303055 216.106918,82.171730 215.004181,77.358833 
	C215.001221,76.906242 214.998276,76.453651 215.540436,75.524498 
	C215.010086,74.024940 214.479752,72.525391 213.741714,70.770103 
	C213.741714,70.770103 213.777649,70.442627 213.904007,69.768898 
	C213.635910,69.185211 213.367813,68.601532 212.923172,67.572166 
	C212.923172,67.572166 212.951859,67.093658 213.027512,66.234047 
	C213.009201,65.238937 213.272659,64.130470 212.925552,63.267624 
	C211.057449,58.623726 211.387268,52.803593 206.000000,50.000000 
	C206.000000,50.000000 205.997742,50.002846 206.033157,49.236313 
	C205.007843,47.833324 203.982544,46.430332 202.439667,44.678246 
	C201.555786,43.278812 200.671906,41.879383 199.714935,39.838940 
	C199.380066,39.600761 199.045197,39.362583 198.300461,38.993137 
	C198.039413,38.824375 197.897003,38.585030 197.779633,37.714787 
	C197.485596,37.495899 197.191559,37.277012 196.979996,37.021019 
	C196.979996,37.021019 196.938416,37.101345 196.774139,36.596928 
	C196.479691,36.419189 196.185226,36.241455 195.976898,36.025616 
	C195.976898,36.025616 195.932312,36.108562 195.809982,35.609650 
	C195.547745,35.402706 195.285522,35.195759 194.997971,34.999420 
	C194.997971,34.999420 195.012421,34.975529 194.847046,34.522179 
	C194.663177,34.236286 194.405838,34.054249 193.604324,33.777351 
	C193.407883,33.504433 193.211456,33.231510 192.796219,32.504871 
	C192.507370,32.349949 192.218506,32.195026 191.998932,32.006638 
	C191.998932,32.006638 191.949692,32.065792 191.990524,31.296083 
	C191.624054,27.504440 189.121033,26.777269 185.468124,26.942495 
	C185.172501,26.801315 184.975510,26.574474 184.642883,25.659533 
	C184.251053,25.520449 183.859238,25.381367 183.174652,25.233480 
	C183.174652,25.233480 182.982285,25.012613 182.724869,24.357992 
	C181.135635,22.589602 179.862244,20.232561 177.891525,19.175108 
	C173.762268,16.959429 169.344864,15.184406 164.880844,13.737179 
	C163.133270,13.170618 160.942917,13.969803 158.285507,14.108047 
	C157.853058,14.000040 157.420609,13.892032 156.576370,13.339765 
	C155.989471,13.257339 155.402557,13.174915 154.198364,13.098879 
	C153.799774,13.001960 153.401184,12.905041 152.572372,12.173309 
	C148.998489,11.806005 145.424591,11.438700 140.932526,11.121588 
	C131.121552,11.375420 121.229073,10.925233 111.518829,12.049295 
	C97.215057,13.705108 83.613808,18.036682 71.865242,26.949724 
	C71.865242,26.949724 71.647537,26.575737 71.029411,26.648939 
	C70.227295,27.236654 69.425171,27.824369 68.541954,28.504463 
	C68.541954,28.504463 68.428467,28.551689 67.796349,28.720030 
	C57.474113,35.389153 48.673615,43.618988 41.994965,53.995190 
	C41.994965,53.995190 41.943104,53.925144 41.393353,54.224998 
	C40.881069,55.117420 40.368782,56.009838 39.938541,56.960297 
	C39.938541,56.960297 39.918625,56.861797 39.403976,57.038162 
	C39.287647,57.364574 39.171318,57.690987 38.836079,58.247417 
	C38.836079,58.247417 38.835835,58.564957 38.244259,58.936756 
	C34.716972,66.193695 31.189684,73.450638 27.678673,80.750076 
	C27.678673,80.750076 27.716803,80.774918 27.161037,81.233482 
	C21.647917,96.412315 19.311892,112.100624 19.949615,128.202255 
	C20.728924,147.878677 26.085308,166.083984 37.982796,182.011414 
	C37.982796,182.011414 37.891308,182.070267 38.005562,182.764679 
	C40.491589,186.303391 42.977612,189.842087 45.547337,193.435760 
	C45.547337,193.435760 45.553284,193.535690 45.712788,194.138580 
	C46.787991,195.453705 47.863190,196.768845 48.994247,198.010712 
	C48.994247,198.010712 48.913326,198.054733 49.022442,198.735947 
	C54.321373,204.859665 59.620304,210.983398 64.987747,217.012466 
	C64.987747,217.012466 64.892738,217.080505 65.127876,217.708145 
	C67.734444,220.164337 70.341011,222.620544 72.995125,225.005646 
	C72.995125,225.005646 72.923409,225.052231 73.149590,225.684677 
	C75.755791,228.189865 78.361992,230.695053 81.146950,233.600922 
	C81.327362,233.835693 81.543098,234.031540 81.915619,234.880981 
	C82.890068,235.640701 83.864510,236.400421 85.068344,237.796097 
	C86.041527,238.200409 87.014709,238.604721 88.000000,239.000000 
	C88.000000,239.000000 87.992546,239.012360 88.196358,239.477921 
	C88.485001,239.638153 88.773643,239.798386 89.002930,239.997757 
	C89.002930,239.997757 89.039253,239.936661 89.220787,240.433258 
	C89.524437,240.588242 89.828087,240.743225 89.999741,240.924286 
	C89.999741,240.924286 90.118416,240.860825 90.137566,241.589706 
	C92.015518,242.881516 93.808418,246.068832 96.479645,241.407532 
	C102.059700,238.683304 107.639755,235.959091 113.066208,233.144028 
	C113.066208,233.144028 113.175133,233.285370 113.877159,233.214996 
	C115.299225,232.170471 116.721298,231.125946 118.727890,229.907684 
	C118.874237,229.766617 119.020584,229.625565 119.183212,229.885513 
	C119.441139,229.589905 119.699066,229.294296 120.639130,228.933151 
	C128.702255,224.252304 136.765396,219.571457 145.665161,214.967896 
	C149.772812,214.987671 153.469009,214.509933 152.997009,208.999756 
	C152.997009,208.999756 152.937073,208.956802 153.425735,208.832092 
	C153.625549,208.572235 153.825378,208.312378 154.004410,207.998123 
	C154.004410,207.998123 154.049911,208.034546 154.774185,208.044128 
	C156.181992,206.695190 157.589783,205.346252 159.000000,204.000000 
	C159.000000,204.000000 158.997223,203.997787 159.458252,203.871460 
	C159.755112,203.710297 159.951004,203.467636 160.323715,202.689102 
	C160.610748,202.486008 160.897781,202.282913 161.896164,202.052551 
	C162.904327,201.000793 163.912491,199.949036 164.992737,198.974533 
	C164.992737,198.974533 164.895432,198.933350 165.403366,198.783340 
	C165.582825,198.491196 165.762283,198.199051 165.986298,197.997498 
	C165.986298,197.997498 165.914886,197.926086 166.667435,197.978973 
	C168.116333,196.347519 169.565216,194.716064 171.224182,192.834732 
	C171.224182,192.834732 171.541733,192.759109 172.300415,192.863846 
	C173.882706,190.935120 175.464996,189.006409 177.004639,187.010422 
	C177.004639,187.010422 177.076630,187.044495 177.808899,187.026550 
	C181.687744,186.688736 181.964706,183.494293 182.807053,180.959534 
	C182.807053,180.959534 182.750763,180.746048 183.499313,180.842087 
	C184.316391,179.541321 185.133469,178.240540 185.997986,176.999420 
	C185.997986,176.999420 185.936432,176.954391 186.650391,176.924866 
	C188.138260,174.700912 189.626129,172.476944 191.084671,170.091156 
	C191.084671,170.091156 191.245819,170.058289 191.618500,169.833725 
	C191.847290,169.634399 191.985947,169.384979 192.003937,169.021378 
	C192.003937,169.021378 192.074692,169.027084 192.518997,168.797668 
M187.687210,23.516020 
	C188.021744,22.974751 188.356277,22.433481 188.690811,21.892216 
	C188.419998,21.758549 188.149185,21.624880 187.878372,21.491207 
	C187.675934,22.021244 187.473480,22.551279 187.687210,23.516020 
z"/>
<path fill="#14B2B2" opacity="1.000000" stroke="none" 
	d="
M171.541733,192.759109 
	C171.541733,192.759109 171.224182,192.834732 170.805115,193.040131 
	C168.895660,194.805725 167.405273,196.365906 165.914886,197.926086 
	C165.914886,197.926086 165.986298,197.997498 165.704437,198.018982 
	C165.246857,198.338089 165.071136,198.635727 164.895432,198.933350 
	C164.895432,198.933350 164.992737,198.974533 164.644791,199.003403 
	C163.259491,200.048111 162.222137,201.063950 161.184784,202.079803 
	C160.897781,202.282913 160.610748,202.486008 159.931717,202.941315 
	C159.358887,203.461609 159.178055,203.729691 158.997223,203.997787 
	C158.997223,203.997787 159.000000,204.000000 158.677917,204.063965 
	C156.920517,205.430130 155.485214,206.732330 154.049911,208.034546 
	C154.049911,208.034546 154.004410,207.998123 153.757599,208.061325 
	C153.319534,208.401947 153.128311,208.679382 152.937073,208.956802 
	C152.937073,208.956802 152.997009,208.999756 152.638702,209.027893 
	C149.796432,211.000885 147.312485,212.945740 144.828522,214.890610 
	C136.765396,219.571457 128.702255,224.252304 120.134186,228.990387 
	C119.403938,229.117996 119.249832,229.263626 119.166931,229.484497 
	C119.020584,229.625565 118.874237,229.766617 118.079308,229.998291 
	C116.012199,231.154404 114.593666,232.219894 113.175133,233.285370 
	C113.175133,233.285370 113.066208,233.144028 112.734451,233.114838 
	C107.111427,235.486923 100.816444,235.262924 96.149033,239.473984 
	C95.403999,240.146149 93.387146,239.569901 92.001472,239.325638 
	C90.602478,239.079025 89.257240,238.527481 87.901947,238.085999 
	C87.915459,238.062469 87.947975,238.104370 87.845161,237.854767 
	C87.424492,237.464752 87.106628,237.324371 86.849655,237.175354 
	C86.910545,237.166733 86.828972,237.258774 86.757050,236.904831 
	C85.087364,235.392563 83.489601,234.234222 81.909378,233.066254 
	C81.926926,233.056641 81.905159,233.102570 81.904144,232.745514 
	C79.783577,228.873627 77.805618,225.185486 72.923409,225.052231 
	C72.923409,225.052231 72.995125,225.005646 72.992950,224.666718 
	C71.417847,220.653381 69.968369,216.841034 64.892738,217.080505 
	C64.892738,217.080505 64.987747,217.012466 64.981796,216.687469 
	C64.768082,215.584778 64.771645,214.645157 64.319283,214.054947 
	C60.564594,209.155762 56.817921,204.243103 52.833687,199.533417 
	C52.045555,198.601761 50.246300,198.525467 48.913330,198.054718 
	C48.913326,198.054733 48.994247,198.010712 48.996502,197.646973 
	C48.942291,195.030029 48.980610,192.689713 45.553284,193.535690 
	C45.553284,193.535690 45.547337,193.435760 45.667301,193.019257 
	C45.016594,187.696533 41.471062,184.870575 37.891308,182.070267 
	C37.891308,182.070267 37.982796,182.011414 37.985100,181.654633 
	C37.537270,179.740326 37.245392,178.114960 36.611324,176.636307 
	C32.486412,167.016907 26.808361,157.780472 24.428616,147.756348 
	C19.862520,128.522736 20.652063,108.970978 25.986280,89.752594 
	C26.798738,86.825432 27.151447,83.770668 27.716801,80.774918 
	C27.716803,80.774918 27.678673,80.750076 28.050697,80.780304 
	C31.893759,73.395332 35.364796,65.980148 38.835835,58.564957 
	C38.835835,58.564957 38.836079,58.247417 39.167297,58.006073 
	C39.638550,57.463749 39.778587,57.162773 39.918625,56.861797 
	C39.918625,56.861797 39.938541,56.960297 40.261002,56.920216 
	C41.036671,55.895138 41.489887,54.910141 41.943104,53.925144 
	C41.943104,53.925144 41.994965,53.995190 42.331738,53.954315 
	C44.125992,53.011494 45.803707,52.336231 47.004238,51.169819 
	C53.477634,44.880409 59.861023,38.497128 66.197899,32.069759 
	C67.150673,31.103376 67.695129,29.734419 68.428467,28.551689 
	C68.428467,28.551689 68.541954,28.504463 68.926460,28.624836 
	C70.089821,28.022051 70.868683,27.298893 71.647537,26.575737 
	C71.647537,26.575737 71.865242,26.949724 72.155029,26.894476 
	C73.244415,26.713350 74.108696,26.741800 74.833717,26.437962 
	C82.971687,23.027494 90.830284,18.610556 99.268356,16.332186 
	C113.476028,12.495965 128.061096,10.196181 142.896286,13.027390 
	C152.264633,14.815285 161.756805,16.018356 170.270920,20.975014 
	C172.547302,22.300253 175.628189,22.243570 178.653351,22.897648 
	C180.305420,23.653524 181.643845,24.333067 182.982285,25.012611 
	C182.982285,25.012613 183.174652,25.233480 183.479843,25.499882 
	C184.149078,25.931511 184.513123,26.096739 184.877167,26.261969 
	C184.975510,26.574474 185.172501,26.801315 185.840698,27.294256 
	C188.125397,29.119274 190.037552,30.592533 191.949692,32.065792 
	C191.949692,32.065792 191.998932,32.006638 192.039627,32.275486 
	C192.391891,32.682419 192.703461,32.820503 193.015030,32.958588 
	C193.211456,33.231510 193.407883,33.504433 193.878555,34.130135 
	C194.439331,34.647118 194.725876,34.811325 195.012421,34.975529 
	C195.012421,34.975529 194.997971,34.999420 195.050812,35.256241 
	C195.379868,35.711563 195.656097,35.910061 195.932312,36.108559 
	C195.932312,36.108562 195.976898,36.025616 196.006256,36.303482 
	C196.336533,36.754681 196.637482,36.928013 196.938416,37.101345 
	C196.938416,37.101345 196.979996,37.021019 197.006531,37.308624 
	C197.313126,37.822525 197.593170,38.048813 197.873199,38.275108 
	C197.897003,38.585030 198.039413,38.824375 198.599213,39.345657 
	C199.194656,39.958767 199.491333,40.219364 199.788025,40.479958 
	C200.671906,41.879383 201.555786,43.278812 202.748840,45.181694 
	C204.037918,47.124374 205.017838,48.563606 205.997742,50.002842 
	C205.997742,50.002846 206.000000,50.000000 206.029236,50.364155 
	C208.356262,56.183426 210.654068,61.638542 212.951859,67.093658 
	C212.951859,67.093658 212.923172,67.572166 212.967926,68.123001 
	C213.267654,69.263443 213.522644,69.853035 213.777649,70.442627 
	C213.777649,70.442627 213.741714,70.770103 213.821411,71.273865 
	C214.265854,73.185440 214.630585,74.593254 214.995331,76.001060 
	C214.998276,76.453651 215.001221,76.906242 215.023346,78.124557 
	C215.349869,82.520836 215.785416,86.145828 215.942841,89.782867 
	C216.689682,107.037308 213.659119,123.722549 208.194000,140.025925 
	C208.194000,140.025925 207.976166,140.440674 207.688324,140.895386 
	C204.951508,146.566940 202.502563,151.783768 200.053604,157.000610 
	C200.053604,157.000610 199.811157,157.194748 199.550598,157.522156 
	C199.172775,158.222992 199.055496,158.596436 198.938232,158.969879 
	C198.938232,158.969879 199.003967,158.985992 198.700348,159.148819 
	C196.573074,162.190369 194.749435,165.069092 192.925797,167.947800 
	C192.925797,167.947800 192.991730,167.996811 192.728241,168.049957 
	C192.334732,168.411102 192.204712,168.719086 192.074692,169.027084 
	C192.074692,169.027084 192.003937,169.021378 191.797974,169.130585 
	C191.295792,169.436142 191.180389,169.708969 191.245819,170.058289 
	C191.245819,170.058289 191.084671,170.091156 190.838348,170.355789 
	C189.040161,172.731750 187.488297,174.843063 185.936432,176.954391 
	C185.936432,176.954391 185.997986,176.999420 185.677399,177.091537 
	C184.488144,178.371124 183.619461,179.558594 182.750763,180.746048 
	C182.750763,180.746048 182.807053,180.959534 182.492767,180.962387 
	C180.477859,182.991653 178.777252,185.018082 177.076630,187.044495 
	C177.076630,187.044495 177.004639,187.010422 176.716888,187.160294 
	C174.800018,189.126480 173.170883,190.942795 171.541733,192.759109 
M139.244934,150.641724 
	C139.383575,150.319717 139.522217,149.997711 139.860458,149.715530 
	C139.860458,149.715530 139.682053,149.617554 140.399628,149.792679 
	C144.609695,147.618042 147.912811,144.715302 148.728989,139.825989 
	C148.728989,139.825989 148.582031,139.616318 149.320480,139.609680 
	C149.852112,138.374893 150.383728,137.140121 150.989517,135.978088 
	C150.989517,135.978088 150.891663,135.943237 151.398315,135.719360 
	C151.465912,135.378983 151.533508,135.038620 151.754639,134.641556 
	C151.754639,134.641556 151.591019,134.638336 152.332687,134.630157 
	C154.888763,129.047073 158.015091,123.640236 159.813095,117.822853 
	C161.152542,113.489044 160.773239,108.624016 161.125900,103.069603 
	C161.169189,99.038956 161.212494,95.008301 161.720123,90.341454 
	C162.577484,83.888763 161.380539,78.047646 156.983414,73.220665 
	C156.983414,73.220665 156.640228,73.292473 156.853165,72.541290 
	C155.545013,71.047287 154.236847,69.553284 153.000839,68.003349 
	C153.000839,68.003349 152.938446,68.070465 152.982254,67.330475 
	C150.818436,62.696316 147.009460,60.587139 142.195816,59.067467 
	C131.753754,55.770901 121.272240,53.869175 110.923019,58.242287 
	C107.426422,59.719795 102.096207,59.513561 100.764107,65.154221 
	C100.764107,65.154221 100.453094,65.230438 99.694168,65.129211 
	C96.077164,66.992264 91.938499,68.332474 91.301537,73.203003 
	C91.301537,73.203003 91.406975,73.387817 90.674126,73.403091 
	C90.186462,74.396240 89.698799,75.389397 89.100174,76.724083 
	C89.100174,76.724083 88.826317,76.956390 88.116440,76.980728 
	C87.422043,77.359070 86.436394,77.558289 86.077011,78.142662 
	C80.805862,86.713936 76.077774,95.543373 75.054169,105.784309 
	C74.683777,109.490005 74.794937,113.243843 74.774544,117.865929 
	C74.745171,120.252083 74.715797,122.638237 74.230492,125.670433 
	C73.600967,132.706970 74.583221,139.299286 79.804138,145.022156 
	C79.804138,145.022156 79.941460,145.365295 79.939880,146.072723 
	C80.979485,147.366898 82.019081,148.661087 82.998390,149.995239 
	C82.998390,149.995239 83.042992,149.938065 83.079445,150.607437 
	C83.747841,151.062546 84.416237,151.517639 85.502510,152.155411 
	C85.764427,152.332977 85.945625,152.571777 86.099731,153.579239 
	C87.052086,154.062698 88.004440,154.546158 88.995171,154.996536 
	C88.995171,154.996536 88.975037,155.042618 89.064682,155.754257 
	C89.559860,156.379242 89.923363,157.272614 90.569618,157.589645 
	C104.046440,164.201126 117.552277,163.472534 130.954117,157.411407 
	C132.223557,156.837280 132.991226,155.153702 133.999390,154.000610 
	C133.999390,154.000610 133.984512,153.989807 134.711777,154.019608 
	C135.641617,153.192825 136.571457,152.366043 137.596130,151.544220 
	C137.596130,151.544220 137.630478,151.455673 138.182648,151.572098 
	C138.335526,151.265137 138.488403,150.958176 138.779953,150.969284 
	C138.779953,150.969284 138.676392,150.638168 139.244934,150.641724 
z"/>
<path fill="#31AEAB" opacity="1.000000" stroke="none" 
	d="
M27.438919,81.004196 
	C27.151447,83.770668 26.798738,86.825432 25.986280,89.752594 
	C20.652063,108.970978 19.862520,128.522736 24.428616,147.756348 
	C26.808361,157.780472 32.486412,167.016907 36.611324,176.636307 
	C37.245392,178.114960 37.537270,179.740326 37.954197,181.699402 
	C26.085308,166.083984 20.728924,147.878677 19.949615,128.202255 
	C19.311892,112.100624 21.647917,96.412315 27.438919,81.004196 
z"/>
<path fill="#31AEAB" opacity="1.000000" stroke="none" 
	d="
M178.339737,22.821316 
	C175.628189,22.243570 172.547302,22.300253 170.270920,20.975014 
	C161.756805,16.018356 152.264633,14.815285 142.896286,13.027390 
	C128.061096,10.196181 113.476028,12.495965 99.268356,16.332186 
	C90.830284,18.610556 82.971687,23.027494 74.833717,26.437962 
	C74.108696,26.741800 73.244415,26.713350 72.061470,26.699406 
	C83.613808,18.036682 97.215057,13.705108 111.518829,12.049295 
	C121.229073,10.925233 131.121552,11.375420 141.734039,11.304910 
	C146.024551,11.928196 149.513580,12.368159 153.002594,12.808123 
	C153.401184,12.905041 153.799774,13.001960 154.711655,13.322269 
	C155.812683,13.625116 156.400421,13.704572 156.988159,13.784026 
	C157.420609,13.892032 157.853058,14.000040 158.876343,14.375675 
	C165.758041,17.369308 172.048889,20.095312 178.339737,22.821316 
z"/>
<path fill="#DFFAFB" opacity="1.000000" stroke="none" 
	d="
M208.530624,139.951248 
	C213.659119,123.722549 216.689682,107.037308 215.942841,89.782867 
	C215.785416,86.145828 215.349869,82.520836 215.108734,78.454483 
	C216.106918,82.171730 217.156738,86.303055 217.927551,90.485794 
	C218.405640,93.080299 216.924728,96.304283 220.571579,97.720078 
	C219.891510,98.909210 219.211426,100.098351 218.531357,101.287491 
	C218.111893,101.080505 217.692413,100.873528 217.272949,100.666550 
	C216.478134,114.176285 216.017044,127.759132 208.530624,139.951248 
z"/>
<path fill="#31AEAB" opacity="1.000000" stroke="none" 
	d="
M68.112411,28.635859 
	C67.695129,29.734419 67.150673,31.103376 66.197899,32.069759 
	C59.861023,38.497128 53.477634,44.880409 47.004238,51.169819 
	C45.803707,52.336231 44.125992,53.011494 42.294739,53.931290 
	C48.673615,43.618988 57.474113,35.389153 68.112411,28.635859 
z"/>
<path fill="#31AEAB" opacity="1.000000" stroke="none" 
	d="
M87.888443,238.109528 
	C89.257240,238.527481 90.602478,239.079025 92.001472,239.325638 
	C93.387146,239.569901 95.403999,240.146149 96.149033,239.473984 
	C100.816444,235.262924 107.111427,235.486923 112.811256,233.160263 
	C107.639755,235.959091 102.059700,238.683304 95.823715,241.640152 
	C93.484665,241.535446 91.801537,241.198135 90.118416,240.860825 
	C90.118416,240.860825 89.999741,240.924286 89.979065,240.661804 
	C89.652016,240.245117 89.345634,240.090881 89.039261,239.936646 
	C89.039253,239.936661 89.002930,239.997757 88.946228,239.734375 
	C88.590538,239.318130 88.291542,239.165237 87.992546,239.012360 
	C87.992546,239.012360 88.000000,239.000000 87.978363,238.778610 
	C87.956726,238.557220 87.888443,238.109543 87.888443,238.109528 
z"/>
<path fill="#DDFAFA" opacity="1.000000" stroke="none" 
	d="
M178.653351,22.897650 
	C172.048889,20.095312 165.758041,17.369308 159.210709,14.395138 
	C160.942917,13.969803 163.133270,13.170618 164.880844,13.737179 
	C169.344864,15.184406 173.762268,16.959429 177.891525,19.175108 
	C179.862244,20.232561 181.135635,22.589602 182.853577,24.685303 
	C181.643845,24.333067 180.305420,23.653524 178.653351,22.897650 
z"/>
<path fill="#31AEAB" opacity="1.000000" stroke="none" 
	d="
M48.967888,198.395325 
	C50.246300,198.525467 52.045555,198.601761 52.833687,199.533417 
	C56.817921,204.243103 60.564594,209.155762 64.319283,214.054947 
	C64.771645,214.645157 64.768082,215.584778 64.947540,216.734802 
	C59.620304,210.983398 54.321373,204.859665 48.967888,198.395325 
z"/>
<path fill="#31AEAB" opacity="1.000000" stroke="none" 
	d="
M38.540047,58.750854 
	C35.364796,65.980148 31.893759,73.395332 28.042559,80.759048 
	C31.189684,73.450638 34.716972,66.193695 38.540047,58.750854 
z"/>
<path fill="#DFFAFB" opacity="1.000000" stroke="none" 
	d="
M200.407104,156.965469 
	C202.502563,151.783768 204.951508,146.566940 207.675018,141.129257 
	C208.241714,147.455353 204.789352,152.322144 200.407104,156.965469 
z"/>
<path fill="#DFFAFB" opacity="1.000000" stroke="none" 
	d="
M212.989685,66.663849 
	C210.654068,61.638542 208.356262,56.183426 206.027817,50.365120 
	C211.387268,52.803593 211.057449,58.623726 212.925552,63.267624 
	C213.272659,64.130470 213.009201,65.238937 212.989685,66.663849 
z"/>
<path fill="#31AEAB" opacity="1.000000" stroke="none" 
	d="
M37.948433,182.417480 
	C41.471062,184.870575 45.016594,187.696533 45.625450,192.991776 
	C42.977612,189.842087 40.491589,186.303391 37.948433,182.417480 
z"/>
<path fill="#D4F9F9" opacity="1.000000" stroke="none" 
	d="
M145.246841,214.929260 
	C147.312485,212.945740 149.796432,211.000885 152.617157,208.998016 
	C153.469009,214.509933 149.772812,214.987671 145.246841,214.929260 
z"/>
<path fill="#31AEAB" opacity="1.000000" stroke="none" 
	d="
M73.036499,225.368454 
	C77.805618,225.185486 79.783577,228.873627 81.668449,232.754868 
	C81.433777,233.121277 80.968185,233.200241 80.968185,233.200241 
	C78.361992,230.695053 75.755791,228.189865 73.036499,225.368454 
z"/>
<path fill="#DFFAFB" opacity="1.000000" stroke="none" 
	d="
M193.284668,167.939468 
	C194.749435,165.069092 196.573074,162.190369 198.674316,159.127075 
	C199.670532,163.408081 197.448944,166.137283 193.284668,167.939468 
z"/>
<path fill="#31AEAB" opacity="1.000000" stroke="none" 
	d="
M65.010307,217.394318 
	C69.968369,216.841034 71.417847,220.653381 72.969177,224.702271 
	C70.341011,222.620544 67.734444,220.164337 65.010307,217.394318 
z"/>
<path fill="#DDFAFA" opacity="1.000000" stroke="none" 
	d="
M191.970108,31.680939 
	C190.037552,30.592533 188.125397,29.119274 186.063705,27.352829 
	C189.121033,26.777269 191.624054,27.504440 191.970108,31.680939 
z"/>
<path fill="#D4F9F9" opacity="1.000000" stroke="none" 
	d="
M186.293411,176.939636 
	C187.488297,174.843063 189.040161,172.731750 190.853012,170.436707 
	C189.626129,172.476944 188.138260,174.700912 186.293411,176.939636 
z"/>
<path fill="#D4F9F9" opacity="1.000000" stroke="none" 
	d="
M171.921082,192.811478 
	C173.170883,190.942795 174.800018,189.126480 176.738220,187.193924 
	C175.464996,189.006409 173.882706,190.935120 171.921082,192.811478 
z"/>
<path fill="#D4F9F9" opacity="1.000000" stroke="none" 
	d="
M177.442764,187.035522 
	C178.777252,185.018082 180.477859,182.991653 182.486969,180.852142 
	C181.964706,183.494293 181.687744,186.688736 177.442764,187.035522 
z"/>
<path fill="#DDFAFA" opacity="1.000000" stroke="none" 
	d="
M152.787476,12.490716 
	C149.513580,12.368159 146.024551,11.928196 142.193115,11.279814 
	C145.424591,11.438700 148.998489,11.806005 152.787476,12.490716 
z"/>
<path fill="#D4F9F9" opacity="1.000000" stroke="none" 
	d="
M166.291168,197.952530 
	C167.405273,196.365906 168.895660,194.805725 170.700073,193.165070 
	C169.565216,194.716064 168.116333,196.347519 166.291168,197.952530 
z"/>
<path fill="#31AEAB" opacity="1.000000" stroke="none" 
	d="
M45.633034,193.837128 
	C48.980610,192.689713 48.942291,195.030029 48.968575,197.683594 
	C47.863190,196.768845 46.787991,195.453705 45.633034,193.837128 
z"/>
<path fill="#D4F9F9" opacity="1.000000" stroke="none" 
	d="
M154.412048,208.039337 
	C155.485214,206.732330 156.920517,205.430130 158.676712,204.062622 
	C157.589783,205.346252 156.181992,206.695190 154.412048,208.039337 
z"/>
<path fill="#D0F6F8" opacity="1.000000" stroke="none" 
	d="
M90.127991,241.225266 
	C91.801537,241.198135 93.484665,241.535446 95.550720,241.861282 
	C93.808418,246.068832 92.015518,242.881516 90.127991,241.225266 
z"/>
<path fill="#DFFAFB" opacity="1.000000" stroke="none" 
	d="
M215.267883,75.762779 
	C214.630585,74.593254 214.265854,73.185440 213.925262,71.401733 
	C214.479752,72.525391 215.010086,74.024940 215.267883,75.762779 
z"/>
<path fill="#DFFAFB" opacity="1.000000" stroke="none" 
	d="
M206.015457,49.619576 
	C205.017838,48.563606 204.037918,47.124374 203.007629,45.356239 
	C203.982544,46.430332 205.007843,47.833324 206.015457,49.619576 
z"/>
<path fill="#31AEAB" opacity="1.000000" stroke="none" 
	d="
M113.526146,233.250183 
	C114.593666,232.219894 116.012199,231.154404 117.787048,230.085175 
	C116.721298,231.125946 115.299225,232.170471 113.526146,233.250183 
z"/>
<path fill="#D4F9F9" opacity="1.000000" stroke="none" 
	d="
M183.125031,180.794067 
	C183.619461,179.558594 184.488144,178.371124 185.653687,177.061707 
	C185.133469,178.240540 184.316391,179.541321 183.125031,180.794067 
z"/>
<path fill="#D4F9F9" opacity="1.000000" stroke="none" 
	d="
M161.540466,202.066162 
	C162.222137,201.063950 163.259491,200.048111 164.608749,198.964783 
	C163.912491,199.949036 162.904327,201.000793 161.540466,202.066162 
z"/>
<path fill="#DDFAFA" opacity="1.000000" stroke="none" 
	d="
M187.479126,23.298668 
	C187.473480,22.551279 187.675934,22.021244 187.878372,21.491209 
	C188.149185,21.624880 188.419998,21.758549 188.690811,21.892214 
	C188.356277,22.433481 188.021744,22.974751 187.479126,23.298668 
z"/>
<path fill="#D0F6F8" opacity="1.000000" stroke="none" 
	d="
M84.838951,237.160156 
	C83.864510,236.400421 82.890068,235.640701 81.910355,234.484100 
	C81.905083,234.087234 82.013634,233.988937 82.290253,234.120499 
	C83.436447,235.101074 84.306015,235.950089 85.092270,236.890152 
	C85.008949,236.981201 84.838951,237.160156 84.838951,237.160156 
z"/>
<path fill="#31AEAB" opacity="1.000000" stroke="none" 
	d="
M71.338470,26.612337 
	C70.868683,27.298893 70.089821,28.022051 68.967010,28.578648 
	C69.425171,27.824369 70.227295,27.236654 71.338470,26.612337 
z"/>
<path fill="#D0F6F8" opacity="1.000000" stroke="none" 
	d="
M87.901947,238.085999 
	C87.888443,238.109543 87.956726,238.557220 87.972305,238.783127 
	C87.014709,238.604721 86.041527,238.200409 84.953644,237.478119 
	C84.838951,237.160156 85.008949,236.981201 85.366409,236.976654 
	C86.092239,237.067657 86.460602,237.163223 86.828972,237.258774 
	C86.828972,237.258774 86.910545,237.166733 86.949234,237.424103 
	C87.307938,237.822449 87.627953,237.963409 87.947975,238.104370 
	C87.947975,238.104370 87.915459,238.062469 87.901947,238.085999 
z"/>
<path fill="#31AEAB" opacity="1.000000" stroke="none" 
	d="
M41.668228,54.075073 
	C41.489887,54.910141 41.036671,55.895138 40.219978,56.891197 
	C40.368782,56.009838 40.881069,55.117420 41.668228,54.075073 
z"/>
<path fill="#31AEAB" opacity="1.000000" stroke="none" 
	d="
M119.175072,229.684998 
	C119.249832,229.263626 119.403938,229.117996 119.793121,229.023163 
	C119.699066,229.294296 119.441139,229.589905 119.175072,229.684998 
z"/>
<path fill="#DFFAFB" opacity="1.000000" stroke="none" 
	d="
M213.840820,70.105759 
	C213.522644,69.853035 213.267654,69.263443 213.056183,68.345840 
	C213.367813,68.601532 213.635910,69.185211 213.840820,70.105759 
z"/>
<path fill="#DDFAFA" opacity="1.000000" stroke="none" 
	d="
M156.782257,13.561896 
	C156.400421,13.704572 155.812683,13.625116 155.020294,13.319075 
	C155.402557,13.174915 155.989471,13.257339 156.782257,13.561896 
z"/>
<path fill="#DDFAFA" opacity="1.000000" stroke="none" 
	d="
M197.826416,37.994946 
	C197.593170,38.048813 197.313126,37.822525 196.965302,37.327179 
	C197.191559,37.277012 197.485596,37.495899 197.826416,37.994946 
z"/>
<path fill="#DDFAFA" opacity="1.000000" stroke="none" 
	d="
M195.871155,35.859104 
	C195.656097,35.910061 195.379868,35.711563 195.063477,35.250938 
	C195.285522,35.195759 195.547745,35.402706 195.871155,35.859104 
z"/>
<path fill="#D0F6F8" opacity="1.000000" stroke="none" 
	d="
M81.057571,233.400574 
	C80.968185,233.200241 81.433777,233.121277 81.669464,233.111923 
	C81.905159,233.102570 81.926926,233.056641 81.939514,233.294464 
	C81.952103,233.532303 82.013634,233.988937 82.013634,233.988937 
	C82.013634,233.988937 81.905083,234.087234 81.849625,234.137848 
	C81.543098,234.031540 81.327362,233.835693 81.057571,233.400574 
z"/>
<path fill="#DFFAFB" opacity="1.000000" stroke="none" 
	d="
M199.751480,40.159451 
	C199.491333,40.219364 199.194656,39.958767 198.804153,39.411289 
	C199.045197,39.362583 199.380066,39.600761 199.751480,40.159451 
z"/>
<path fill="#D0F6F8" opacity="1.000000" stroke="none" 
	d="
M88.094452,239.245148 
	C88.291542,239.165237 88.590538,239.318130 88.975906,239.714813 
	C88.773643,239.798386 88.485001,239.638153 88.094452,239.245148 
z"/>
<path fill="#D0F6F8" opacity="1.000000" stroke="none" 
	d="
M89.130020,240.184952 
	C89.345634,240.090881 89.652016,240.245117 90.045074,240.648773 
	C89.828087,240.743225 89.524437,240.588242 89.130020,240.184952 
z"/>
<path fill="#31AEAB" opacity="1.000000" stroke="none" 
	d="
M39.661301,56.949982 
	C39.778587,57.162773 39.638550,57.463749 39.276752,57.891064 
	C39.171318,57.690987 39.287647,57.364574 39.661301,56.949982 
z"/>
<path fill="#D4F9F9" opacity="1.000000" stroke="none" 
	d="
M153.181396,208.894440 
	C153.128311,208.679382 153.319534,208.401947 153.767975,208.088531 
	C153.825378,208.312378 153.625549,208.572235 153.181396,208.894440 
z"/>
<path fill="#DDFAFA" opacity="1.000000" stroke="none" 
	d="
M196.856277,36.849136 
	C196.637482,36.928013 196.336533,36.754681 195.963196,36.322533 
	C196.185226,36.241455 196.479691,36.419189 196.856277,36.849136 
z"/>
<path fill="#D4F9F9" opacity="1.000000" stroke="none" 
	d="
M159.227737,203.934631 
	C159.178055,203.729691 159.358887,203.461609 159.792847,203.168488 
	C159.951004,203.467636 159.755112,203.710297 159.227737,203.934631 
z"/>
<path fill="#D4F9F9" opacity="1.000000" stroke="none" 
	d="
M165.149399,198.858337 
	C165.071136,198.635727 165.246857,198.338089 165.682159,197.973694 
	C165.762283,198.199051 165.582825,198.491196 165.149399,198.858337 
z"/>
<path fill="#DDFAFA" opacity="1.000000" stroke="none" 
	d="
M194.929733,34.748856 
	C194.725876,34.811325 194.439331,34.647118 194.113907,34.229485 
	C194.405838,34.054249 194.663177,34.236286 194.929733,34.748856 
z"/>
<path fill="#DDFAFA" opacity="1.000000" stroke="none" 
	d="
M192.905624,32.731728 
	C192.703461,32.820503 192.391891,32.682419 192.004990,32.292221 
	C192.218506,32.195026 192.507370,32.349949 192.905624,32.731728 
z"/>
<path fill="#DFFAFB" opacity="1.000000" stroke="none" 
	d="
M191.432159,169.946014 
	C191.180389,169.708969 191.295792,169.436142 191.813263,169.162628 
	C191.985947,169.384979 191.847290,169.634399 191.432159,169.946014 
z"/>
<path fill="#DFFAFB" opacity="1.000000" stroke="none" 
	d="
M192.296844,168.912384 
	C192.204712,168.719086 192.334732,168.411102 192.709320,168.013504 
	C192.808914,168.215164 192.663956,168.506409 192.296844,168.912384 
z"/>
<path fill="#DFFAFB" opacity="1.000000" stroke="none" 
	d="
M199.199310,158.810013 
	C199.055496,158.596436 199.172775,158.222992 199.536713,157.676819 
	C199.675720,157.886124 199.568054,158.268127 199.199310,158.810013 
z"/>
<path fill="#DDFAFA" opacity="1.000000" stroke="none" 
	d="
M184.760025,25.960751 
	C184.513123,26.096739 184.149078,25.931511 183.626221,25.504284 
	C183.859238,25.381367 184.251053,25.520449 184.760025,25.960751 
z"/>
<path fill="#FCFEFE" opacity="1.000000" stroke="none" 
	d="
M86.046104,152.871811 
	C85.945625,152.571777 85.764427,152.332977 85.215622,151.765137 
	C84.300156,150.895935 83.671577,150.417007 83.042992,149.938065 
	C83.042992,149.938065 82.998390,149.995239 82.926529,149.668732 
	C81.883598,148.016586 80.912529,146.690948 79.941460,145.365295 
	C79.941460,145.365295 79.804138,145.022156 79.576385,144.529205 
	C77.794556,137.698959 76.240486,131.361679 74.686417,125.024391 
	C74.715797,122.638237 74.745171,120.252083 74.861328,117.016617 
	C76.025375,101.840942 81.015038,88.899330 88.826317,76.956390 
	C88.826317,76.956390 89.100174,76.724083 89.444145,76.408493 
	C90.327736,75.191200 90.867355,74.289513 91.406975,73.387817 
	C91.406975,73.387817 91.301537,73.203003 91.675896,73.143082 
	C94.851204,70.465584 97.652153,67.848015 100.453094,65.230438 
	C100.453094,65.230438 100.764107,65.154221 101.206024,64.948090 
	C119.482780,54.479191 136.670532,54.187679 152.938446,68.070465 
	C152.938446,68.070465 153.000839,68.003349 153.019791,68.361557 
	C154.239243,70.244003 155.439728,71.768242 156.640228,73.292473 
	C156.640228,73.292473 156.983414,73.220665 156.844986,73.619232 
	C158.222961,79.671089 159.739380,85.324371 161.255798,90.977654 
	C161.212494,95.008301 161.169189,99.038956 161.025970,103.926392 
	C157.814362,114.734901 154.702682,124.686615 151.591003,134.638336 
	C151.591019,134.638336 151.754639,134.641556 151.460938,134.806274 
	C151.075363,135.295059 150.983521,135.619156 150.891663,135.943237 
	C150.891663,135.943237 150.989517,135.978088 150.669525,136.102386 
	C149.760376,137.356552 149.171204,138.486435 148.582031,139.616318 
	C148.582031,139.616318 148.728989,139.825989 148.347870,139.884583 
	C145.205185,143.167984 142.443619,146.392761 139.682053,149.617554 
	C139.682053,149.617554 139.860458,149.715530 139.527603,149.772812 
	C138.899582,150.020966 138.726791,150.290314 138.676392,150.638168 
	C138.676392,150.638168 138.779953,150.969284 138.485016,150.860428 
	C137.891418,150.897202 137.704895,151.131897 137.630478,151.455673 
	C137.630478,151.455673 137.596130,151.544220 137.249512,151.616653 
	C135.930099,152.455994 134.957306,153.222900 133.984512,153.989807 
	C133.984512,153.989807 133.999390,154.000610 133.644165,154.039795 
	C130.798492,155.358398 128.411285,156.922699 125.800110,157.868912 
	C113.133492,162.459015 100.833313,161.416916 88.975037,155.042618 
	C88.975037,155.042618 88.995171,154.996536 88.835526,154.732849 
	C87.799294,153.936707 86.922699,153.404266 86.046104,152.871811 
z"/>
<path fill="#42B2B3" opacity="1.000000" stroke="none" 
	d="
M152.960358,67.700470 
	C136.670532,54.187679 119.482780,54.479191 101.307159,64.823975 
	C102.096207,59.513561 107.426422,59.719795 110.923019,58.242287 
	C121.272240,53.869175 131.753754,55.770901 142.195816,59.067467 
	C147.009460,60.587139 150.818436,62.696316 152.960358,67.700470 
z"/>
<path fill="#42B2B3" opacity="1.000000" stroke="none" 
	d="
M89.019859,155.398438 
	C100.833313,161.416916 113.133492,162.459015 125.800110,157.868912 
	C128.411285,156.922699 130.798492,155.358398 133.640381,154.032104 
	C132.991226,155.153702 132.223557,156.837280 130.954117,157.411407 
	C117.552277,163.472534 104.046440,164.201126 90.569618,157.589645 
	C89.923363,157.272614 89.559860,156.379242 89.019859,155.398438 
z"/>
<path fill="#42B2B3" opacity="1.000000" stroke="none" 
	d="
M88.471375,76.968559 
	C81.015038,88.899330 76.025375,101.840942 74.817245,116.571503 
	C74.794937,113.243843 74.683777,109.490005 75.054169,105.784309 
	C76.077774,95.543373 80.805862,86.713936 86.077011,78.142662 
	C86.436394,77.558289 87.422043,77.359070 88.471375,76.968559 
z"/>
<path fill="#42B2B3" opacity="1.000000" stroke="none" 
	d="
M151.961853,134.634247 
	C154.702682,124.686615 157.814362,114.734901 161.042725,104.389374 
	C160.773239,108.624016 161.152542,113.489044 159.813095,117.822853 
	C158.015091,123.640236 154.888763,129.047073 151.961853,134.634247 
z"/>
<path fill="#42B2B3" opacity="1.000000" stroke="none" 
	d="
M74.458450,125.347412 
	C76.240486,131.361679 77.794556,137.698959 79.426468,144.421158 
	C74.583221,139.299286 73.600967,132.706970 74.458450,125.347412 
z"/>
<path fill="#42B2B3" opacity="1.000000" stroke="none" 
	d="
M161.487946,90.659554 
	C159.739380,85.324371 158.222961,79.671089 156.671158,73.640266 
	C161.380539,78.047646 162.577484,83.888763 161.487946,90.659554 
z"/>
<path fill="#42B2B3" opacity="1.000000" stroke="none" 
	d="
M140.040833,149.705109 
	C142.443619,146.392761 145.205185,143.167984 148.250488,139.801468 
	C147.912811,144.715302 144.609695,147.618042 140.040833,149.705109 
z"/>
<path fill="#42B2B3" opacity="1.000000" stroke="none" 
	d="
M100.073639,65.179825 
	C97.652153,67.848015 94.851204,70.465584 91.756027,73.213058 
	C91.938499,68.332474 96.077164,66.992264 100.073639,65.179825 
z"/>
<path fill="#42B2B3" opacity="1.000000" stroke="none" 
	d="
M156.746704,72.916885 
	C155.439728,71.768242 154.239243,70.244003 152.983719,68.389526 
	C154.236847,69.553284 155.545013,71.047287 156.746704,72.916885 
z"/>
<path fill="#31AEAB" opacity="1.000000" stroke="none" 
	d="
M82.290253,234.120499 
	C82.013634,233.988937 81.952103,233.532303 81.921967,233.304092 
	C83.489601,234.234222 85.087364,235.392563 86.757050,236.904831 
	C86.460602,237.163223 86.092239,237.067657 85.449730,236.885590 
	C84.306015,235.950089 83.436447,235.101074 82.290253,234.120499 
z"/>
<path fill="#42B2B3" opacity="1.000000" stroke="none" 
	d="
M79.940674,145.719009 
	C80.912529,146.690948 81.883598,148.016586 82.956673,149.648743 
	C82.019081,148.661087 80.979485,147.366898 79.940674,145.719009 
z"/>
<path fill="#42B2B3" opacity="1.000000" stroke="none" 
	d="
M148.951263,139.613007 
	C149.171204,138.486435 149.760376,137.356552 150.632446,136.066010 
	C150.383728,137.140121 149.852112,138.374893 148.951263,139.613007 
z"/>
<path fill="#42B2B3" opacity="1.000000" stroke="none" 
	d="
M134.348145,154.004700 
	C134.957306,153.222900 135.930099,152.455994 137.202087,151.614166 
	C136.571457,152.366043 135.641617,153.192825 134.348145,154.004700 
z"/>
<path fill="#42B2B3" opacity="1.000000" stroke="none" 
	d="
M91.040550,73.395454 
	C90.867355,74.289513 90.327736,75.191200 89.499626,76.237717 
	C89.698799,75.389397 90.186462,74.396240 91.040550,73.395454 
z"/>
<path fill="#42B2B3" opacity="1.000000" stroke="none" 
	d="
M86.072922,153.225525 
	C86.922699,153.404266 87.799294,153.936707 88.816338,154.749390 
	C88.004440,154.546158 87.052086,154.062698 86.072922,153.225525 
z"/>
<path fill="#42B2B3" opacity="1.000000" stroke="none" 
	d="
M83.061218,150.272751 
	C83.671577,150.417007 84.300156,150.895935 85.006683,151.673813 
	C84.416237,151.517639 83.747841,151.062546 83.061218,150.272751 
z"/>
<path fill="#31AEAB" opacity="1.000000" stroke="none" 
	d="
M87.845161,237.854767 
	C87.627953,237.963409 87.307938,237.822449 86.888344,237.432739 
	C87.106628,237.324371 87.424492,237.464752 87.845161,237.854767 
z"/>
<path fill="#42B2B3" opacity="1.000000" stroke="none" 
	d="
M137.906555,151.513885 
	C137.704895,151.131897 137.891418,150.897202 138.415680,150.701385 
	C138.488403,150.958176 138.335526,151.265137 137.906555,151.513885 
z"/>
<path fill="#42B2B3" opacity="1.000000" stroke="none" 
	d="
M138.960663,150.639954 
	C138.726791,150.290314 138.899582,150.020966 139.427795,149.752899 
	C139.522217,149.997711 139.383575,150.319717 138.960663,150.639954 
z"/>
<path fill="#42B2B3" opacity="1.000000" stroke="none" 
	d="
M151.144989,135.831299 
	C150.983521,135.619156 151.075363,135.295059 151.384155,134.834610 
	C151.533508,135.038620 151.465912,135.378983 151.144989,135.831299 
z"/>
</svg>